<svg width="245" height="223" viewBox="0 0 245 223" fill="none" xmlns="http://www.w3.org/2000/svg">
<g clip-path="url(#clip0_4581_65196)">
<path d="M177.853 90.5145C177.787 89.9406 178.733 89.5163 179.441 88.9265C180.863 87.7401 181.12 86.041 181.482 84.6163C181.798 83.3777 181.219 86.1748 185.566 74.6349C189.649 63.8072 187.483 68.4373 192.145 53.7645C192.598 52.3195 193.1 50.7769 192.598 49.0006C192.072 47.1382 190.813 46.3941 188.742 42.8756C188.24 42.0249 187.857 41.3103 187.607 40.8339C187.873 40.4823 188.252 40.0059 188.742 39.4728C189.053 39.1348 189.853 38.2887 192.598 36.2969C193.819 35.4099 194.887 34.6863 196.001 34.7089C196.249 34.6933 196.493 34.7746 196.682 34.9358C196.682 34.9358 197.199 35.4576 196.682 36.9616C196.682 36.9616 195.409 38.2161 195.32 38.0958C195.232 37.9756 196.623 36.7098 198.043 35.8273C199.132 35.1468 199.785 34.9789 200.311 34.9199C200.925 34.8181 201.556 34.8969 202.126 35.1468C202.389 35.2738 202.682 35.5347 203.26 36.0542C203.941 36.6599 204.272 36.9616 204.395 37.1884C204.537 37.4516 204.757 38.0096 204.395 39.457C204.144 40.4124 203.762 41.3285 203.26 42.1792C202.494 43.5925 202.425 44.4885 201.899 46.7162C201.014 50.4661 199.753 54.1184 198.723 57.832C195.59 69.111 195.899 67.4913 193.506 76.207C193.424 76.5041 192.09 80.9459 189.422 89.8181C188.817 91.8348 187.607 93.6587 187.154 95.7162C187.031 96.2743 186.927 96.9095 186.473 97.0773C185.668 97.3813 184.985 95.63 182.163 93.6745C181.095 92.9327 180.121 92.0503 178.987 91.406C178.463 91.1225 177.901 90.9296 177.853 90.5145Z" fill="white"/>
<path d="M126.584 90.2856C126.727 90.0905 127.024 89.6799 127.491 89.6051C127.87 89.5438 128.101 89.7435 128.399 89.6051C128.696 89.4667 128.809 89.0788 128.852 88.9245C129.263 87.4591 130.619 82.6657 133.162 80.0773C133.661 79.5692 133.909 79.3105 134.297 79.1699C135.787 78.6277 137.019 80.1272 141.329 82.3458C142.287 82.8511 143.272 83.3054 144.278 83.7069C144.959 83.9678 145.131 84.0064 146.093 84.3875C148.209 85.2268 147.363 85.0544 148.588 85.5217C148.974 85.6692 149.562 85.8779 149.949 86.4292C150.052 86.5653 150.129 86.719 150.176 86.8829C150.294 87.3207 150.12 87.6405 149.949 88.244C149.845 88.6158 149.769 88.9949 149.723 89.3782C150.544 89.4304 150.827 89.4191 151.084 89.6051C151.215 89.719 151.323 89.8578 151.401 90.0135C151.479 90.1693 151.525 90.3388 151.537 90.5125C151.674 91.5106 150.841 92.3432 150.63 92.5542C150.108 93.0759 149.913 92.9443 149.042 93.6884C148.71 93.9597 148.406 94.2637 148.135 94.5958C147.851 94.9497 147.64 95.3671 147.227 96.1838C146.888 96.8474 146.585 97.529 146.32 98.2254C146.234 98.4523 146.163 98.6587 146.093 98.906C145.989 99.2778 145.913 99.657 145.866 100.04C145.769 100.832 145.837 101.308 145.866 102.536C145.88 103.076 145.893 103.67 145.866 104.35C145.825 105.392 145.714 105.961 145.639 106.619C145.44 108.368 145.812 108.935 145.639 110.249C145.412 111.975 145.235 113.341 144.505 114.559C143.033 117.018 139.634 118.34 136.565 117.962C132.663 117.478 130.626 114.393 129.986 113.425C129.426 112.576 127.664 109.904 128.625 108.207C129.306 107.002 130.894 107.123 131.348 105.712C131.529 105.147 131.363 104.909 131.121 103.443C130.742 101.163 131.046 101.029 130.667 98.6792C130.352 96.7146 130.179 95.7301 129.533 95.2764C128.886 94.8227 128.126 94.9656 127.264 94.1421C126.988 93.8801 126.758 93.5734 126.584 93.2347C126.18 92.4407 125.944 91.1681 126.584 90.2856Z" fill="white"/>
<path d="M108.208 96.1847C108.875 95.3386 113.834 98.6801 119.551 101.175C123.439 102.866 125.381 103.709 127.491 104.351C129.131 104.85 131.626 105.513 131.574 106.166C131.554 106.423 131.157 106.448 130.667 106.847C129.646 107.682 129.224 109.322 129.533 110.703C129.895 112.332 131.177 113.167 131.574 113.425C132.513 114.038 133.487 114.136 135.431 114.333C136.635 114.49 137.856 114.49 139.06 114.333C139.398 114.285 139.553 114.249 141.783 113.652C144.816 112.84 145.185 112.729 145.412 112.291C145.523 112.064 145.487 111.239 145.412 109.569C145.38 108.839 145.346 108.392 145.639 107.981C145.882 107.641 146.193 107.545 146.773 107.3C147.302 107.074 147.883 106.774 149.042 106.166C150.557 105.372 151.083 104.844 151.31 105.032C151.455 105.152 151.269 105.402 151.083 106.393C150.937 107.217 150.861 108.052 150.857 108.888C150.857 109.172 150.857 109.408 150.857 109.569C150.48 110.322 150.664 111.034 150.63 111.157C150.389 112.003 150.317 114.88 150.403 117.055C150.464 118.575 150.615 120.09 150.857 121.592C151.011 122.5 151.238 123.738 151.537 125.222C151.537 125.222 152.345 129.217 153.579 133.842C155.738 141.927 159.749 153.73 159.931 154.259C160.425 155.708 161.203 157.07 161.519 158.569C161.634 159.251 161.95 159.883 162.426 160.384C162.628 160.583 163.141 161.089 163.787 161.064C164.67 161.028 165.026 160.032 165.375 160.157C165.724 160.282 162.653 183.75 162.653 184.43L162.787 184.237C162.787 184.237 162.746 184.305 162.653 184.43C160.877 186.857 158.154 187.606 154.713 188.513C150.403 189.648 146.807 189.598 145.412 189.648C141.751 189.782 138.221 189.909 133.616 188.967C130.894 188.397 128.235 187.561 125.676 186.472C124.115 185.812 122.348 184.807 118.87 182.842C114.787 180.533 112.73 179.367 112.292 178.759C110.742 176.611 113.898 146.162 114.333 142.009C114.586 140.195 114.51 138.351 114.107 136.564C113.68 134.77 112.909 133.075 111.838 131.574C110.913 130.296 110.534 130.253 105.259 125.902C102.737 123.822 102.072 123.214 101.63 122.046C101.074 120.578 101.403 119.657 100.495 118.643C99.3907 117.42 98.1544 117.926 97.5464 116.828C97.222 116.241 97.4829 115.921 97.7733 113.199C97.9298 111.726 97.8413 111.937 98.0001 110.476C98.3041 107.684 98.7442 107.786 98.6807 106.393C98.6086 105.704 98.686 105.008 98.9075 104.351C99.0325 104.037 99.1843 103.733 99.3612 103.444C100.078 102.167 100.461 101.484 101.176 100.949C101.811 100.475 101.857 100.742 102.537 100.268C103.687 99.4673 103.445 98.7209 104.352 98.2264C105.182 97.7727 105.579 98.2877 106.62 97.7727C107.169 97.5257 107.64 97.1335 107.982 96.6384C108.149 96.3708 108.138 96.2755 108.208 96.1847Z" fill="#025F4C"/>
<path d="M169.006 97.3197C166.528 96.8433 164.614 97.871 164.469 97.5466C164.339 97.2562 165.88 96.4123 167.871 95.0512C171.651 92.4674 173.543 91.1743 174.45 90.0605C174.806 89.6249 175.739 88.4135 177.172 88.2456C177.398 88.2098 177.627 88.2098 177.853 88.2456C179.327 88.5791 180.713 89.6068 181.029 89.8336C181.766 90.3849 182.163 90.741 182.163 90.741C187.106 95.1896 191.464 102.22 191.691 104.125C191.755 104.591 191.676 105.066 191.464 105.486C191.305 105.75 191.137 105.858 190.783 106.167C190.429 106.475 189.98 106.947 189.649 107.301C188.699 108.32 188.209 108.844 187.607 108.889C186.859 108.946 186.246 108.234 186.019 107.982C184.171 105.92 181.453 104.847 179.214 103.218C175.176 100.28 173.159 98.8056 171.728 98.454C170.87 98.243 170.167 97.5466 169.006 97.3197Z" fill="#025F4C"/>
<path d="M155.62 108.21C155.692 108.149 155.768 108.093 155.847 108.044C156.124 107.867 156.58 107.685 157.662 107.529C159.801 107.22 161.671 106.926 164.695 107.302C165.806 107.44 169.835 107.942 172.181 109.117C172.825 109.439 173.542 109.913 174.676 110.024C175.23 110.079 175.633 110.024 176.264 110.251C176.799 110.408 177.274 110.725 177.625 111.159C178.156 111.871 178.306 112.973 177.852 113.654C177.557 114.092 177.246 114.01 177.171 114.335C177.035 114.922 178.029 115.308 178.533 116.603C178.669 116.952 178.569 116.859 178.759 117.51C179.093 118.645 179.336 118.763 179.667 119.779C180.014 120.845 179.782 120.836 180.12 121.594C180.3 121.995 180.524 122.358 180.574 122.955C180.601 123.268 180.552 123.331 180.574 123.635C180.617 124.118 180.773 124.584 181.028 124.997C181.552 125.927 181.963 127.844 182.616 130.895C183.09 133.104 183.326 134.209 183.296 134.751C183.07 138.928 178.501 143.315 175.81 142.464C174.517 142.056 173.769 140.47 173.542 139.515C173.004 137.301 174.147 134.052 174.222 133.844C174.401 133.413 174.479 132.948 174.449 132.483C174.386 131.748 174.059 131.621 173.769 130.668C173.435 129.577 173.678 129.137 173.315 128.853C172.898 128.529 172.256 128.853 171.5 129.08C169.152 129.76 166.943 128.951 166.056 128.626C164.887 128.2 164.137 127.639 163.333 127.038C161.519 125.677 160.509 124.275 159.25 122.501C157.885 120.597 156.743 118.542 155.847 116.376C155.305 115.051 155.108 114.13 154.713 112.293C154.606 111.792 154.355 110.573 154.713 109.571C154.9 109.05 155.212 108.583 155.62 108.21Z" fill="white"/>
<path d="M174.678 134.068C174.802 135.182 174.38 135.83 173.997 137.017C173.482 138.605 173.192 139.512 173.543 140.42C173.852 141.131 174.42 141.699 175.131 142.008C176.678 142.688 178.273 141.744 178.988 141.327C180.211 140.586 181.165 139.473 181.71 138.151C182.055 137.341 182.506 136.336 183.071 135.202C183.246 134.853 183.373 134.506 183.525 134.521C183.783 134.549 183.856 135.599 183.978 137.244C184.157 139.678 184.516 142.096 185.051 144.478C185.247 145.304 185.346 145.578 185.566 145.637C186.533 145.894 188.515 141.581 189.423 139.285C190.587 136.37 191.465 134.118 191.918 130.892C192.281 128.288 192.122 126.922 193.279 125.674C194.187 124.701 195.296 124.429 196.909 124.086C205.486 122.271 205.797 123.263 210.066 122.045C212.149 121.45 214.009 120.663 215.057 121.591C215.681 122.144 215.71 123.036 215.738 123.633C215.801 124.994 216.309 128.244 217.326 134.748C217.811 137.854 218.371 139.825 217.326 140.646C216.938 140.95 216.629 140.86 215.965 141.1C214.694 141.554 213.803 142.62 212.789 144.503C210.747 148.289 210.293 151.082 210.293 151.082C208.962 159.248 209.576 170.439 209.613 171.045C210.103 179.479 210.6 182.614 208.478 186.471C207.31 188.587 205.883 189.873 204.849 190.781C199.55 195.454 193.234 195.837 190.557 195.998C185.437 196.309 181.569 195.091 179.441 194.41C178.677 194.163 176.588 193.11 172.409 191.008C171.552 190.574 170.42 189.987 169.687 188.739C169.187 187.84 168.951 186.817 169.006 185.79C169.074 182.235 168.841 178.683 168.779 175.128C168.723 171.864 168.289 169.398 167.418 164.466C167.033 162.274 166.738 160.067 166.284 157.887C165.787 155.467 165.492 154.484 165.603 152.896C165.672 151.926 165.851 151.34 167.191 147.906C169.61 141.71 169.233 143.078 170.821 139.058C170.821 139.058 171.186 138.128 172.409 135.656C173.468 133.512 173.902 132.865 174.224 132.933C174.546 133.002 174.65 133.82 174.678 134.068Z" fill="#C0D7D2"/>
<path d="M210.293 124.767C210.633 124.37 211.039 124.148 213.015 123.633C214.83 123.156 216.275 122.884 218.232 122.499C226.746 120.827 219.934 122.013 222.089 121.591C223.307 121.364 224.022 121.258 224.357 120.684C224.611 120.25 224.537 119.738 224.131 118.415C223.634 116.793 223.384 115.983 222.996 115.239C221.862 113.077 220.644 108.141 219.14 102.082C218.126 97.9986 215.753 88.4345 215.737 84.3875C215.754 83.2371 215.602 82.0904 215.283 80.9847C214.852 79.5056 214.464 79.3083 214.149 78.2625C213.593 76.4204 214.133 74.8393 215.056 72.1375C215.056 72.1375 216.297 68.5079 217.779 68.0541C217.926 68.006 218.085 68.006 218.232 68.0541C218.598 68.1993 218.686 68.7007 218.686 68.7347C218.716 69.0542 218.636 69.3745 218.459 69.6421C217.72 70.9397 217.779 72.818 217.779 72.818C217.831 72.5102 217.907 72.2068 218.006 71.9106C218.17 71.4281 218.398 70.9702 218.686 70.5495C220.834 67.3396 221.635 65.1051 221.635 65.1051C222.391 62.9976 222.046 62.131 222.996 61.4754C223.947 60.8198 225.285 60.9945 225.492 61.0217C226.138 61.1173 226.757 61.3493 227.306 61.7023C229.421 62.9318 230.256 64.9758 230.482 65.5588C230.774 66.2801 230.927 67.0495 230.936 67.8273C230.936 68.9616 230.609 69.472 230.482 69.6421C230.354 69.8144 230.201 69.9673 230.029 70.0958L229.348 71.0032L228.668 71.9106C227.267 73.7529 226.052 75.7285 225.038 77.8088C224.21 79.6395 223.795 80.5537 223.677 81.8921C223.5 83.8998 224.131 84.9229 225.038 88.244C225.612 90.3582 225.582 90.7756 226.172 93.4616C227.33 98.752 228.769 103.977 230.482 109.114C232.442 114.738 233.445 120.716 235.927 126.128C236.175 126.618 236.255 127.176 236.154 127.716C236.029 128.147 235.794 128.538 235.473 128.85C234.616 129.697 230.607 130.858 225.038 131.8C223.346 132.33 221.939 132.707 220.955 132.934C217.761 133.705 217.751 133.435 215.737 134.068C214.77 134.359 213.785 134.586 212.788 134.749C211.629 134.975 211.161 135.003 210.746 134.749C210.379 134.522 210.102 134.111 209.839 132.707C209.583 131.285 209.507 129.837 209.612 128.397C209.719 126.38 209.782 125.361 210.293 124.767Z" fill="white"/>
<path d="M62.6115 30.3984C63.5552 29.0373 63.9726 28.8671 64.1995 28.8104C65.0683 28.5836 65.8691 29.1575 66.0143 29.2641C66.5156 29.6316 66.629 30.0059 67.1485 31.0789C67.8586 32.5467 67.7384 32.043 68.9634 34.4817C69.56 35.6704 69.8594 36.2648 69.8708 36.2965C70.059 36.7956 70.3494 37.7007 71.005 38.3382C71.1298 38.4607 71.3135 38.6149 71.4587 38.565C71.6629 38.4924 71.6856 38.0524 71.6856 37.8845C71.7336 36.9629 71.8858 36.0496 72.1393 35.1623C72.1688 35.0715 72.6588 33.6401 73.9541 33.1206C74.3851 32.9482 75.2222 32.7486 75.5421 33.1206C75.7372 33.3474 75.6283 33.656 75.3152 34.9354C75.0384 36.0697 74.9023 36.6255 74.8615 36.9771C74.7571 37.9026 74.9205 38.0728 74.8615 39.2456C74.8116 40.246 74.6755 40.4502 74.6347 41.0604C74.5484 42.3353 75.0112 43.22 75.5421 44.4632C76.4903 46.6886 76.1228 46.4754 77.13 49.0002C79.3736 54.6171 84.201 63.1875 86.4309 67.1484C86.8461 67.8856 87.1682 68.6705 87.5652 69.4169C88.4726 71.141 89.0193 71.9327 88.6995 72.5928C88.5565 72.8877 88.3705 72.9104 87.7921 73.2734C87.023 73.7566 86.4468 74.428 85.2967 75.7687C83.8108 77.4996 83.8584 77.7923 83.4819 77.8104C82.8921 77.8399 82.2591 77.2161 80.3059 73.5002C78.9244 70.8733 78.4911 69.8706 78.4911 69.8706C75.1972 62.262 72.7495 57.8701 71.2319 53.5373C71.2319 53.5373 70.5921 51.7088 70.5513 51.7224C70.5105 51.7361 70.8235 52.6117 70.7782 52.6299C70.7328 52.648 69.9207 50.7107 69.8708 50.5882C69.6439 50.0437 68.496 47.1741 67.8291 46.5049L67.3754 46.0511L66.9217 45.5974C66.4498 45.1279 66.0143 44.8488 65.5606 44.4632C65.2067 44.1683 65.1409 44.0299 64.4263 43.3289C63.4327 42.3557 62.9382 41.868 62.6115 41.5141C61.0235 39.7946 61.4024 39.5382 60.1161 38.3382C59.6261 37.8845 59.3085 37.6735 59.2087 37.2039C59.1248 36.816 59.2269 36.4099 59.8893 35.1623C60.2772 34.4341 60.5698 33.9622 60.7967 33.5743C61.813 31.8661 61.8289 31.5326 62.6115 30.3984Z" fill="white"/>
<path d="M79.1729 97.3208C79.1509 95.646 79.3029 93.9734 79.6266 92.3301C79.9442 90.7217 80.3072 88.9273 81.4414 86.8856C82.1628 85.5994 83.2336 83.6915 85.5248 82.3486C86.6794 81.668 87.8818 81.4412 90.2886 80.9875C91.0577 80.8423 91.9674 80.7084 92.5572 81.2143C92.7999 81.423 92.7999 81.5773 93.2377 82.1217C93.5643 82.5481 93.9457 82.9294 94.372 83.256C95.3316 83.9365 95.8011 83.3876 96.6405 83.9365C97.6432 84.5899 97.2711 85.5517 98.2285 85.9782C98.8659 86.2618 99.3105 85.9623 100.043 86.4319C100.327 86.5934 100.562 86.8285 100.724 87.1125C101.087 87.793 100.601 88.2308 100.724 89.1541C100.867 90.2271 101.599 90.2408 101.631 91.1958C101.661 92.051 101.078 92.1486 101.178 93.0106C101.246 93.5891 101.536 93.7751 101.631 94.5986C101.664 94.9001 101.664 95.2044 101.631 95.506C101.246 99.8162 100.043 102.312 100.043 102.312C99.6894 103.047 99.6055 103.067 99.3627 103.673C98.8228 105.034 98.7706 106.123 98.6822 107.075C98.6028 107.926 98.6708 106.762 98.0016 111.159C97.0035 117.715 97.2031 117.982 96.6405 118.645C95.0525 120.507 91.9242 120.219 89.6081 120.006C84.4517 119.532 79.833 116.669 80.0803 115.015C80.1688 114.428 80.8312 114.255 81.2146 112.974C81.3779 112.425 81.4029 111.921 81.4414 110.932C81.4777 110.025 81.455 109.482 81.4414 108.663C81.4414 108.321 81.4029 106.329 81.2146 103.673C81.1715 103.076 81.1216 102.473 80.7609 102.312C80.3457 102.126 79.9737 102.729 79.1729 102.765C78.2292 102.806 77.5101 102.023 77.3581 101.858C76.7161 101.159 76.4507 100.154 76.6775 99.3625C76.7037 99.2244 76.7573 99.093 76.8353 98.9761C76.9132 98.8592 77.0139 98.7591 77.1312 98.6819C77.442 98.5186 77.8368 98.6275 78.0386 98.6819C78.4651 98.7976 78.5332 98.9632 78.7192 98.9088C79.0436 98.8112 79.1389 98.2101 79.1729 98.0014C79.2077 97.7758 79.2077 97.5463 79.1729 97.3208Z" fill="white"/>
<path d="M17.0145 78.7184C17.1506 78.4054 17.407 77.904 17.9219 76.9036C20.018 72.8203 20.4808 72.514 20.871 72.3666C21.6264 72.0807 22.5089 72.4029 24.2738 73.0471C25.8073 73.6074 25.6031 73.8139 27.9034 74.8619C29.5299 75.6037 30.1039 75.7149 30.6256 76.4499C31.0793 77.0828 31.1973 77.7588 31.3062 78.4916C31.431 79.3332 31.3901 79.9729 31.3062 81.2138C31.2653 81.8218 31.2154 82.5386 31.0793 83.4823C30.9546 84.3466 30.8525 84.7481 30.8525 85.524C30.8525 85.8529 30.8729 86.023 30.8525 86.4314C30.8003 87.4431 30.4918 87.8855 30.3988 88.0193C30.2925 88.2097 30.1354 88.3667 29.9451 88.473C29.4596 88.6999 28.8653 88.3982 28.584 88.2462C25.9139 86.817 24.58 86.1024 23.8201 85.524C23.2166 85.0703 22.5792 84.5417 21.7784 84.6166C21.6627 84.6279 21.0978 84.6801 20.871 85.0703C20.6736 85.406 20.8188 85.8234 20.871 85.9777C21.2158 87.003 21.2634 88.1101 21.5515 89.1536C21.6219 89.4077 21.826 90.6077 22.2321 93.0101C22.5928 95.1425 22.5747 95.1538 22.6858 95.5055C22.9943 96.4809 23.3187 96.9777 23.3664 98.0008C23.402 98.3781 23.402 98.7578 23.3664 99.1351C23.2983 99.9359 23.4934 100.449 23.5932 100.95C24.0174 103.062 23.8496 110.201 25.1812 117.51C26.0251 122.787 26.447 125.423 26.3154 126.811C26.2746 127.249 26.1952 127.818 26.5423 128.172C27.0232 128.662 27.9692 128.372 29.0377 128.172C30.6256 127.873 29.9451 128.256 33.5747 127.945C36.7937 127.669 36.7506 127.419 38.3386 127.492C39.2664 127.535 39.8267 127.646 40.834 127.492C42.1157 127.296 42.4537 126.929 43.1025 127.038C43.9736 127.185 44.4522 128.045 45.371 129.76C47.5238 133.775 47.0497 132.995 49.0006 137.246C49.6812 138.714 49.9784 139.347 49.6812 139.968C49.3477 140.665 48.5469 140.74 46.0516 141.33C42.5535 142.153 42.7577 142.325 40.6071 142.691C39.2548 142.913 37.8918 143.064 36.5238 143.144C24.0265 144.052 28.6248 143.535 25.1812 143.825C25.1812 143.825 20.356 144.233 17.9219 142.917C17.5895 142.734 17.2842 142.505 17.0145 142.237C16.0867 141.28 15.937 140.043 15.8803 139.515C14.7256 128.771 14.746 126.13 14.746 126.13C14.7914 120.425 14.3603 121.854 14.2923 114.107C14.2673 111.158 14.3309 111.272 14.5191 102.538C14.5191 102.538 14.712 93.5886 15.6534 84.1629C15.8164 82.2875 16.2758 80.4499 17.0145 78.7184Z" fill="white"/>
<path d="M56.9405 186.245C57.4056 186.103 57.9296 186.574 58.0748 186.699C58.2744 186.874 61.4594 188.101 67.8294 190.556C76.1753 193.772 85.7507 193.505 85.7507 193.505C93.0599 193.301 101.369 191.322 103.899 189.421C104.153 189.231 105.505 188.171 105.941 188.514C106.215 188.741 106.009 189.421 105.941 189.648C104.659 194.054 104.759 198.752 103.899 203.259C103.568 204.992 103.298 206.739 102.991 208.477C100.997 219.82 100.845 225.225 98.9081 237.06C97.7738 244.04 97.1795 247.552 96.4127 248.63C89.1535 258.854 65.0936 258.353 58.9822 248.63C57.9092 246.924 57.5122 243.712 56.7137 237.287C56.3983 234.742 56.0558 231.139 55.8063 221.407C55.3525 203.395 56.1942 201.626 55.8063 196.227C55.7813 195.882 55.8652 193.958 56.0331 190.102C56.1193 188.126 56.2032 186.472 56.9405 186.245Z" fill="#C0D7D2"/>
<path d="M75.4989 89.3305C75.1859 88.2983 74.832 87.2071 74.9023 86.1137C74.9545 85.322 75.3016 84.4554 76.0003 84.0244C76.7444 83.5707 77.6926 83.5979 78.4684 83.1851C79.2942 82.7472 79.6413 81.8988 79.8114 81.0277C79.9566 80.2904 80.002 79.3785 80.6235 78.859C80.9404 78.6081 81.3252 78.458 81.7283 78.428C82.2206 78.3826 82.672 78.5414 83.1575 78.5437C83.4152 78.5348 83.6673 78.4662 83.894 78.3434C84.1207 78.2206 84.3159 78.0469 84.4641 77.8359C84.8248 77.3822 85.1651 76.9285 85.5145 76.4634C86.1678 75.6059 86.7803 74.6486 87.5856 73.934C88.434 73.1673 89.5887 72.9881 90.6799 72.8247L92.6603 72.5298C93.3467 72.4518 94.0283 72.336 94.702 72.1827C95.1988 72.0512 95.0649 71.2935 94.5613 71.3048C93.9331 71.3397 93.3075 71.4109 92.6875 71.5181C92.0818 71.5997 91.4784 71.6882 90.8727 71.7789C89.7793 71.9423 88.6473 72.0806 87.6673 72.6319C86.6873 73.1831 86.0793 74.0747 85.4192 74.9276L84.3099 76.3908C84.1352 76.6177 83.9651 76.8445 83.7881 77.0714C83.6588 77.237 83.5091 77.4593 83.2981 77.5251C83.0871 77.5909 82.799 77.4911 82.5767 77.4593C82.3284 77.4205 82.0768 77.4076 81.8258 77.4207C81.3408 77.4442 80.8665 77.5718 80.4352 77.795C79.5483 78.2601 79.1626 79.1562 78.9811 80.084C78.8405 80.8054 78.8087 81.8012 78.1191 82.2436C77.3478 82.7381 76.3406 82.6724 75.5398 83.1283C74.6074 83.6592 74.0743 84.7163 73.9518 85.7576C73.7976 87.0914 74.2649 88.3346 74.7685 89.546C74.9522 89.9838 75.6373 89.8023 75.4944 89.3191L75.4989 89.3305Z" fill="#010012"/>
<path d="M73.7271 92.3545C73.8614 92.9891 73.8513 93.6458 73.6976 94.276C73.5301 94.9033 73.23 95.4873 72.8174 95.9887C72.0642 96.9642 71.1137 98.1937 71.6559 99.5026C71.8992 100.018 72.3027 100.44 72.806 100.707C73.1872 100.934 73.659 101.129 73.9403 101.494C74.2942 101.966 74.1082 102.667 74.0968 103.207C74.0688 103.846 74.2708 104.474 74.6662 104.977C75.653 106.206 77.3522 106.462 78.8335 106.32C78.9517 106.309 79.0614 106.254 79.1404 106.165C79.2194 106.077 79.2617 105.961 79.2588 105.843C79.256 105.724 79.208 105.611 79.1248 105.526C79.0416 105.442 78.9294 105.392 78.8108 105.387C77.6561 105.285 76.2587 105.34 75.4625 104.332C75.1131 103.879 75.1041 103.382 75.1381 102.842C75.1766 102.216 75.1993 101.569 74.8454 101.027C74.5405 100.614 74.1416 100.28 73.6817 100.052C73.3142 99.8406 72.865 99.641 72.6404 99.2644C72.3659 98.8107 72.5134 98.2118 72.738 97.7672C73.0216 97.2092 73.448 96.7441 73.7997 96.2314C74.2112 95.647 74.4809 94.9747 74.5872 94.2678C74.6935 93.561 74.6336 92.8391 74.4122 92.1594C74.3851 92.0692 74.3233 91.9934 74.2403 91.9487C74.1573 91.904 74.06 91.8942 73.9698 91.9212C73.8795 91.9483 73.8038 92.0101 73.7591 92.0931C73.7144 92.176 73.7045 92.2733 73.7316 92.3636L73.7271 92.3545Z" fill="#010012"/>
<path d="M78.1978 97.4052C77.3516 97.2668 76.7618 97.9269 76.569 98.6869C76.3915 99.3835 76.4335 100.118 76.6892 100.79C76.9349 101.46 77.4356 102.005 78.0821 102.307C78.7445 102.596 79.5226 102.643 80.1396 102.226C80.5253 101.965 80.2667 101.296 79.7926 101.457C79.3742 101.61 78.9134 101.6 78.5024 101.427C78.0915 101.255 77.7607 100.934 77.5762 100.529C77.3763 100.083 77.3018 99.5915 77.3607 99.1066C77.4061 98.6824 77.5876 98.0835 78.1184 98.113C78.5199 98.1356 78.5971 97.471 78.1978 97.4052Z" fill="#010012"/>
<path d="M92.208 80.5784C93.0054 80.2521 93.8967 80.2391 94.7033 80.5421C95.4951 80.8506 96.0962 81.6764 97.0104 81.6287C97.9246 81.5811 98.4056 80.5965 99.1837 80.1973C100.059 79.7436 100.812 80.4241 101.659 80.6011C102.625 80.8007 103.728 80.4378 104.265 79.5893C104.549 79.1356 103.909 78.75 103.557 79.0721C102.97 79.6052 102.296 79.8343 101.516 79.5734C101.082 79.4283 100.674 79.2014 100.218 79.1197C99.7706 79.0422 99.3101 79.0999 98.8956 79.2853C98.4937 79.4702 98.128 79.7252 97.8157 80.0385C97.5753 80.2653 97.3008 80.6646 96.9356 80.685C96.5703 80.7054 96.1824 80.3629 95.8875 80.1678C95.5331 79.9308 95.1444 79.7495 94.7351 79.6302C93.7907 79.3573 92.777 79.4648 91.9108 79.9296C91.5592 80.1179 91.8246 80.7259 92.2012 80.5716L92.208 80.5784Z" fill="#010012"/>
<path d="M99.8679 85.8323C100.195 86.6807 100.641 87.6199 101.621 87.8377C102.601 88.0554 103.341 87.2569 104.205 86.9416C104.618 86.7633 105.079 86.7321 105.512 86.8531C105.923 86.987 106.274 87.2637 106.667 87.4407C107.033 87.6226 107.441 87.7011 107.849 87.6675C108.257 87.6176 108.795 87.4021 108.872 86.9416C108.922 86.6558 108.67 86.3268 108.354 86.4471C108.039 86.5673 107.901 86.7374 107.565 86.7057C107.232 86.6437 106.916 86.5148 106.635 86.3268C106.289 86.1103 105.911 85.9517 105.514 85.8573C105.095 85.7848 104.664 85.8049 104.253 85.9162C103.863 86.0251 103.489 86.1837 103.139 86.3881C102.799 86.5809 102.459 86.869 102.052 86.9257C101.288 87.0323 100.848 86.0728 100.573 85.5238C100.378 85.1313 99.7091 85.4285 99.8679 85.8391V85.8323Z" fill="#010012"/>
<path d="M101.034 93.5081C101.03 93.8796 101.134 94.2442 101.332 94.5584C101.531 94.8726 101.815 95.123 102.152 95.2798C102.898 95.6269 103.658 95.3864 104.357 95.0529C104.945 94.7671 105.548 94.3474 106.222 94.5856C106.604 94.7582 107.02 94.8435 107.44 94.8352C107.887 94.8191 108.309 94.6276 108.615 94.3021C108.842 94.0253 108.615 93.5217 108.218 93.6601C107.909 93.7969 107.578 93.8739 107.24 93.8869C106.911 93.8869 106.626 93.7191 106.312 93.6397C105.655 93.4763 105.038 93.6941 104.452 93.9867C103.962 94.2295 103.42 94.6129 102.846 94.572C102.564 94.5392 102.3 94.4147 102.095 94.2176C101.89 94.0205 101.756 93.7618 101.712 93.4809C101.71 93.3906 101.672 93.3049 101.607 93.2426C101.541 93.1803 101.454 93.1464 101.364 93.1485C101.273 93.1506 101.188 93.1885 101.125 93.2538C101.063 93.3191 101.029 93.4065 101.031 93.4967L101.034 93.5081Z" fill="#010012"/>
<path d="M96.242 88.7625C96.469 88.7409 96.6978 88.7493 96.9226 88.7875C97.0475 88.8074 97.1711 88.8354 97.2924 88.8714L97.4738 88.9304H97.4965L97.5941 88.9712C97.7033 89.0187 97.8101 89.0717 97.9139 89.13C97.9706 89.1618 98.0251 89.1935 98.0773 89.2276L98.1476 89.2752C98.1657 89.2866 98.2247 89.3319 98.1816 89.2979C98.3812 89.4535 98.5685 89.6241 98.7419 89.8083C99.0618 90.1395 99.6493 89.6767 99.3794 89.2911C99.0009 88.7976 98.4798 88.4325 97.8867 88.2453C97.3235 88.0583 96.7208 88.0239 96.1399 88.1455C95.7861 88.2135 95.8813 88.8056 96.242 88.7739V88.7625Z" fill="#010012"/>
<path d="M84.2515 90.6989C84.629 90.1777 85.096 89.7276 85.6307 89.3695C86.1736 89.0255 86.7712 88.7769 87.3979 88.6345C87.8176 88.5302 87.7155 87.8156 87.2777 87.8745C86.5374 87.9869 85.8311 88.2613 85.2092 88.6781C84.5873 89.095 84.065 89.644 83.6798 90.286C83.641 90.3619 83.6306 90.4492 83.6504 90.5321C83.6702 90.615 83.7188 90.6881 83.7877 90.7384C83.8565 90.7887 83.941 90.8127 84.026 90.8063C84.111 90.7999 84.191 90.7634 84.2515 90.7034V90.6989Z" fill="#010012"/>
<path d="M86.6416 92.6659L86.6575 92.7657V92.7407L86.6462 92.8406V92.8224L86.6121 92.9131C86.6109 92.9072 86.6109 92.901 86.6121 92.895L86.5554 92.9721L86.5736 92.9517L86.4987 93.013L86.5259 92.9971L86.4352 93.0379C86.4434 93.0359 86.4519 93.0359 86.4601 93.0379L86.3558 93.0538H86.3989L86.2945 93.0425H86.3286L86.231 93.0039C86.2411 93.0073 86.2503 93.0127 86.2582 93.0198L86.1743 92.9563L86.1947 92.9767L86.1289 92.895V92.9086L86.0836 92.8111C86.0855 92.8177 86.0855 92.8248 86.0836 92.8315L86.0654 92.7203C86.0687 92.7602 86.0756 92.7996 86.0858 92.8383C86.0983 92.8756 86.115 92.9114 86.1357 92.9449L86.1471 92.9676L86.1017 92.8678C86.1083 92.8806 86.1128 92.8944 86.1153 92.9086L86.0972 92.7952C86.0994 92.8163 86.0994 92.8376 86.0972 92.8587L86.1108 92.743C86.1066 92.7629 86.1013 92.7826 86.0949 92.802L86.1357 92.6954C86.1266 92.717 86.1152 92.7375 86.1017 92.7566L86.1698 92.6636C86.1515 92.6902 86.1293 92.7139 86.104 92.7339L86.1947 92.6613C86.1756 92.6756 86.1551 92.6877 86.1335 92.6976L86.2401 92.65C86.2213 92.6592 86.2015 92.666 86.1811 92.6704L86.3013 92.65C86.284 92.6523 86.2665 92.6523 86.2492 92.65L86.3694 92.6636C86.3523 92.6612 86.3355 92.6566 86.3195 92.65L86.4284 92.6931C86.4124 92.6865 86.3971 92.6782 86.383 92.6681L86.4783 92.7362C86.4626 92.7258 86.4488 92.7127 86.4375 92.6976L86.5123 92.7884C86.5012 92.7741 86.4913 92.759 86.4828 92.743L86.5327 92.8496C86.5218 92.8266 86.5141 92.8022 86.51 92.777L86.5305 92.8973C86.5271 92.8694 86.5271 92.8412 86.5305 92.8133L86.5169 92.9358C86.5209 92.9048 86.5285 92.8744 86.5395 92.8451L86.4964 92.9563C86.5053 92.9313 86.5175 92.9076 86.5327 92.8859L86.4624 92.9812C86.4779 92.9627 86.4945 92.9453 86.5123 92.929L86.4216 93.0039C86.4376 92.9912 86.4551 92.9805 86.4738 92.9721L86.3649 93.022C86.3842 93.0129 86.4049 93.0068 86.4261 93.0039L86.3036 93.022H86.3762L86.2514 93.0084C86.2756 93.011 86.2993 93.0171 86.3218 93.0266L86.2083 92.9812C86.2379 92.9932 86.2661 93.0084 86.2923 93.0266L86.1947 92.9563C86.2208 92.976 86.2445 92.9988 86.265 93.0243L86.1902 92.9313C86.2102 92.9563 86.227 92.9837 86.2401 93.013L86.1902 92.9018C86.2037 92.9313 86.2129 92.9627 86.2174 92.9948L86.1993 92.87C86.2015 92.8972 86.2015 92.9245 86.1993 92.9517L86.2129 92.8269C86.2105 92.8463 86.2059 92.8653 86.1993 92.8837L86.2446 92.7702C86.2359 92.7894 86.2253 92.8076 86.2129 92.8247L86.2832 92.7271C86.2695 92.7471 86.2526 92.7647 86.2333 92.7793L86.3286 92.7022C86.3089 92.7192 86.2867 92.733 86.2628 92.743L86.3762 92.6931C86.358 92.7005 86.3389 92.7058 86.3195 92.709L86.4443 92.6908H86.4306L86.5577 92.7044H86.5214L86.6371 92.7498L86.6076 92.7339L86.7051 92.8065C86.6717 92.7763 86.6353 92.7497 86.5963 92.7271C86.5559 92.7058 86.5133 92.6891 86.4692 92.6772L86.5826 92.7203C86.5129 92.6829 86.4349 92.6634 86.3558 92.6636C86.2751 92.6648 86.1962 92.6875 86.1272 92.7294C86.0582 92.7713 86.0017 92.8308 85.9633 92.9018C85.9241 92.9709 85.9038 93.0492 85.9044 93.1287C85.9044 93.1786 85.918 93.2262 85.9293 93.2738C85.9528 93.3612 86.0008 93.4399 86.0677 93.5007C86.1407 93.5674 86.2286 93.6156 86.324 93.6413C86.4436 93.6694 86.5686 93.6631 86.6847 93.6232C86.8001 93.5829 86.9048 93.517 86.991 93.4304C87.0759 93.3417 87.1375 93.2334 87.1702 93.115C87.1853 93.0541 87.1937 92.9918 87.1951 92.929C87.194 92.8624 87.1849 92.7961 87.1679 92.7317C87.1638 92.7072 87.1562 92.6836 87.1452 92.6613C87.1239 92.599 87.095 92.5396 87.059 92.4844C87.0235 92.4338 86.984 92.386 86.9411 92.3415C86.8938 92.297 86.8421 92.2575 86.7868 92.2235C86.7669 92.21 86.7456 92.1986 86.7233 92.1895C86.608 92.1318 86.48 92.1045 86.3512 92.1101C86.3001 92.1151 86.2493 92.1234 86.1993 92.135H86.163C86.0535 92.1735 85.9542 92.2363 85.8726 92.3188C85.819 92.3745 85.7753 92.439 85.7433 92.5094C85.7207 92.5609 85.7017 92.6139 85.6866 92.6681C85.6746 92.7272 85.667 92.7871 85.6639 92.8474C85.6615 92.8662 85.6615 92.8852 85.6639 92.9041C85.6669 92.9632 85.6768 93.0219 85.6934 93.0787C85.7104 93.1325 85.7332 93.1842 85.7614 93.233C85.7896 93.2824 85.8248 93.3275 85.8658 93.3669C85.9463 93.4476 86.0463 93.5062 86.1562 93.537C86.2695 93.5698 86.3899 93.5698 86.5032 93.537C86.6169 93.5039 86.7206 93.4431 86.805 93.36C86.8482 93.3184 86.8856 93.2711 86.9161 93.2194C86.9296 93.2011 86.941 93.1813 86.9501 93.1604C87.0043 93.0555 87.0294 92.938 87.0227 92.8201C87.0165 92.7251 86.9885 92.6328 86.9411 92.5502C86.911 92.5009 86.8735 92.4565 86.8299 92.4186L86.9433 92.6024C86.9283 92.5587 86.9085 92.5169 86.8844 92.4776C86.84 92.4136 86.7829 92.3595 86.7165 92.3188C86.6794 92.2957 86.6388 92.2788 86.5963 92.2689H86.5804C86.5411 92.2655 86.5017 92.2655 86.4624 92.2689C86.4188 92.2705 86.3755 92.2766 86.3331 92.287H86.3013C86.2219 92.3157 86.1493 92.3605 86.0881 92.4186L86.1652 92.3551C86.1448 92.3687 86.1289 92.3846 86.1108 92.3982C86.0931 92.4104 86.0764 92.4241 86.0609 92.439C86.0357 92.4668 86.0137 92.4972 85.9951 92.5298C85.9943 92.5358 85.9943 92.5419 85.9951 92.5479C85.9666 92.6014 85.9491 92.6601 85.9436 92.7205C85.9382 92.7809 85.9449 92.8418 85.9633 92.8995C85.9934 92.9902 86.0555 93.0669 86.138 93.115C86.1801 93.1398 86.2276 93.1538 86.2764 93.1559C86.3257 93.1657 86.3767 93.1617 86.4238 93.1445C86.4714 93.1321 86.516 93.1102 86.555 93.0802C86.5939 93.0502 86.6265 93.0127 86.6507 92.9699L86.687 92.8814C86.704 92.8175 86.704 92.7502 86.687 92.6863L86.6416 92.6659Z" fill="#010012"/>
<path d="M96.6737 93.9884L96.6964 93.968L96.617 94.0315C96.6508 94.0075 96.6826 93.981 96.7123 93.9521L96.735 93.9317L96.651 93.9997C96.7166 93.9572 96.771 93.8997 96.8098 93.8319L96.7463 93.9203C96.7597 93.9022 96.7758 93.8861 96.7939 93.8727L96.7055 93.9453L96.837 93.8387L96.7463 93.9113C96.7711 93.8927 96.7977 93.8768 96.8257 93.8636L96.7168 93.9135C96.744 93.9001 96.773 93.8909 96.803 93.8863L96.6805 93.9067C96.7107 93.9033 96.7411 93.9033 96.7713 93.9067L96.6442 93.8931C96.6696 93.897 96.6947 93.9031 96.7191 93.9113L96.4922 93.7933L96.5058 93.8092L96.4287 93.7139C96.4452 93.736 96.4596 93.7595 96.4718 93.7842L96.4196 93.6685C96.4314 93.6962 96.4397 93.7251 96.4446 93.7547L96.4242 93.6254C96.4287 93.6616 96.4287 93.6982 96.4242 93.7343L96.4378 93.6027C96.4378 93.6527 96.4378 93.7026 96.4219 93.7547L96.4378 93.6232C96.4333 93.6597 96.4241 93.6955 96.4106 93.7298L96.4559 93.6096C96.4449 93.6395 96.4296 93.6678 96.4106 93.6935L96.4877 93.5914C96.4696 93.614 96.4491 93.6346 96.4264 93.6527L96.5263 93.5733C96.507 93.589 96.4856 93.602 96.4627 93.6118L96.5807 93.5596L96.5126 93.5801L96.6442 93.5596C96.6194 93.563 96.5942 93.563 96.5694 93.5596L96.7032 93.5733C96.6761 93.5707 96.6494 93.5646 96.6238 93.5551L96.744 93.6027C96.7141 93.5891 96.6853 93.5732 96.6578 93.5551L96.7622 93.63C96.7354 93.6111 96.711 93.589 96.6896 93.5642L96.7713 93.6617C96.7505 93.6368 96.7329 93.6094 96.7191 93.5801L96.7713 93.698C96.7595 93.6712 96.7512 93.643 96.7463 93.6141L96.769 93.7457C96.7656 93.7246 96.7656 93.7032 96.769 93.6821L96.7531 93.816C96.7567 93.7913 96.7628 93.7669 96.7713 93.7434L96.7236 93.8636C96.732 93.845 96.7427 93.8275 96.7554 93.8115L96.6782 93.9135C96.69 93.8976 96.7038 93.8831 96.7191 93.8704L96.6193 93.9521C96.6383 93.9371 96.6588 93.9242 96.6805 93.9135L96.5626 93.968C96.5901 93.9555 96.619 93.9464 96.6488 93.9408L96.5149 93.9634C96.548 93.9589 96.5816 93.9589 96.6147 93.9634L96.4809 93.9476L96.5694 93.968L96.4469 93.9203C96.4742 93.9316 96.5001 93.946 96.524 93.9634L96.4196 93.8886C96.4371 93.9011 96.4531 93.9155 96.4673 93.9317C96.5024 93.9607 96.5396 93.9872 96.5784 94.0111C96.6217 94.0346 96.6673 94.0536 96.7145 94.0678L96.8416 94.0814C96.9049 94.0815 96.9672 94.0659 97.0231 94.036C97.0617 94.0234 97.0967 94.0016 97.1251 93.9725C97.1764 93.9391 97.2173 93.8919 97.2431 93.8364C97.2902 93.7505 97.3115 93.6528 97.3044 93.5551C97.3003 93.507 97.2927 93.4592 97.2817 93.4122C97.2681 93.3782 97.2408 93.3192 97.225 93.2897C97.1955 93.2453 97.1613 93.2042 97.1229 93.1672C97.0337 93.0824 96.9256 93.0202 96.8075 92.9857C96.7259 92.9613 96.641 92.9491 96.5557 92.9494C96.4695 92.9474 96.3835 92.9605 96.3017 92.988C96.2431 93.0075 96.1862 93.0318 96.1315 93.0606C96.0798 93.093 96.0312 93.1303 95.9863 93.1717C95.9236 93.2262 95.8733 93.2935 95.8389 93.3691C95.8099 93.4276 95.7879 93.4893 95.7731 93.5528C95.7596 93.6208 95.755 93.6902 95.7595 93.7593C95.7699 93.8914 95.8103 94.0194 95.8775 94.1336C95.9989 94.3264 96.1884 94.4665 96.4083 94.526C96.5394 94.5589 96.6765 94.5589 96.8075 94.526C96.8688 94.5068 96.928 94.4817 96.9845 94.4512C97.0404 94.4189 97.0922 94.3801 97.1388 94.3355C97.2101 94.2824 97.2716 94.2171 97.3202 94.1427C97.3481 94.086 97.3724 94.0277 97.3928 93.968C97.4002 93.9441 97.4063 93.9199 97.411 93.8954C97.4234 93.8318 97.4302 93.7673 97.4314 93.7026C97.4275 93.6368 97.4176 93.5715 97.4019 93.5075C97.3992 93.4848 97.3931 93.4626 97.3838 93.4417C97.3638 93.3821 97.3372 93.3251 97.3044 93.2715C97.2698 93.2148 97.2279 93.1629 97.1796 93.1173C97.0716 93.0179 96.9293 92.9642 96.7826 92.9676C96.7123 92.9636 96.6417 92.9713 96.5739 92.9903C96.5102 93.0077 96.4486 93.032 96.3901 93.0628C96.3628 93.0768 96.337 93.0935 96.313 93.1127C96.227 93.1728 96.1544 93.25 96.0998 93.3396C96.0686 93.3955 96.0443 93.4549 96.0272 93.5165C96.0022 93.6133 96.0022 93.7147 96.0272 93.8115L96.0113 93.7026C96.0109 93.7564 96.0241 93.8095 96.0499 93.8568L96.0771 93.9158L96.0952 93.9408C96.1288 93.9948 96.1757 94.0393 96.2314 94.0701C96.3206 94.1116 96.4213 94.122 96.5172 94.0996C96.5787 94.081 96.6343 94.0466 96.6782 93.9997L96.6737 93.9884Z" fill="#010012"/>
<path d="M92.8085 90.4046C92.6104 91.4239 92.4493 92.4485 92.3253 93.4784C92.2686 93.9639 92.2119 94.447 92.1688 94.9325C92.089 95.4222 92.0495 95.9177 92.0508 96.4139C92.0586 96.5214 92.0882 96.6263 92.1378 96.722C92.1875 96.8178 92.2561 96.9024 92.3395 96.9708C92.423 97.0391 92.5194 97.0898 92.6231 97.1196C92.7267 97.1494 92.8353 97.1578 92.9423 97.1443C93.158 97.1197 93.3689 97.0639 93.5685 96.9787C93.7463 96.8883 93.9429 96.8409 94.1424 96.8403C94.4282 96.8857 94.2173 97.4007 94.1764 97.5799C94.1219 97.8103 94.0545 98.0375 93.9745 98.2604C93.8762 98.4744 93.8002 98.6979 93.7477 98.9274C93.691 99.3312 94.1605 99.6669 94.4827 99.3289C94.8048 98.9909 94.9681 98.3807 95.0861 97.9088C95.2041 97.437 95.3538 96.8812 95.1201 96.4411C95.0099 96.2599 94.8524 96.1122 94.6646 96.0139C94.4767 95.9155 94.2656 95.8703 94.0539 95.883C93.8275 95.8937 93.6044 95.942 93.3938 96.0259C93.2645 96.0713 93.1397 96.1258 93.0081 96.1621C92.9696 96.1798 92.928 96.1898 92.8856 96.1915C92.8493 96.1915 92.8561 96.1915 92.906 96.1915L93.0353 96.4002C92.9969 96.2004 93.0016 95.9947 93.049 95.7968C93.0671 95.5382 93.0898 95.2773 93.1102 95.0187C93.1541 94.5196 93.1979 94.0206 93.2418 93.5215C93.3325 92.5075 93.4278 91.4934 93.5208 90.4794C93.5571 90.0779 92.8924 90.0098 92.8153 90.4023L92.8085 90.4046Z" fill="#010012"/>
<path d="M89.2325 102.876C90.3668 102.98 91.501 102.983 92.6353 103.005C93.1933 103.019 93.7514 103.019 94.3095 103.026C94.8851 103.046 95.4614 103.035 96.0358 102.992C96.3783 102.956 96.5054 102.395 96.1084 102.341C94.9855 102.184 93.8036 102.218 92.6716 102.202C91.5396 102.186 90.3645 102.152 89.2121 102.221C89.1298 102.229 89.0538 102.269 88.9993 102.331C88.9448 102.393 88.9158 102.474 88.9181 102.557C88.9204 102.639 88.9538 102.718 89.0117 102.778C89.0695 102.837 89.1476 102.872 89.2302 102.876H89.2325Z" fill="#010012"/>
<path d="M89.1182 105.566C89.8706 106.373 90.8694 106.909 91.9584 107.088C92.4958 107.166 93.0435 107.136 93.569 106.999C94.0772 106.863 94.6352 106.618 94.9596 106.19C95.0206 106.126 95.0562 106.043 95.0595 105.955C95.0628 105.867 95.0337 105.781 94.9776 105.713C94.9216 105.645 94.8425 105.6 94.7555 105.587C94.6685 105.573 94.5797 105.593 94.5059 105.641C94.1266 105.858 93.725 106.033 93.3081 106.165C92.8913 106.268 92.4585 106.29 92.0332 106.23C91.1332 106.073 90.2985 105.656 89.6309 105.033C89.5599 104.965 89.4648 104.928 89.3665 104.93C89.2682 104.932 89.1748 104.973 89.1069 105.044C89.0389 105.115 89.0019 105.21 89.004 105.308C89.0061 105.407 89.0472 105.5 89.1182 105.568V105.566Z" fill="#010012"/>
<path d="M99.5285 102.311C98.7504 104.199 97.8521 106.109 96.5114 107.669C95.2116 109.182 93.5147 110.326 91.5207 110.68C90.4587 110.851 89.3715 110.773 88.3447 110.453C87.891 110.321 87.6143 111.02 88.0453 111.215C90.0121 112.122 92.3441 111.703 94.2021 110.723C96.153 109.695 97.6434 107.942 98.6665 106.016C99.2505 104.905 99.7261 103.74 100.087 102.538C100.184 102.216 99.6601 102 99.5285 102.311Z" fill="#010012"/>
<path d="M97.9271 108.697C97.3989 111.443 97.0781 114.224 96.9675 117.018C96.938 117.615 97.8749 117.592 97.9021 116.995C98.0246 114.244 98.315 111.51 98.5827 108.772C98.6212 108.393 97.9951 108.332 97.9203 108.697H97.9271Z" fill="#010012"/>
<path d="M80.9629 102.685C81.065 104.359 81.1557 106.033 81.2102 107.707C81.2374 108.528 81.2533 109.347 81.2601 110.169C81.2669 110.99 81.2102 111.888 81.2601 112.741C81.2873 113.292 82.0722 113.256 82.1085 112.721C82.1629 111.89 82.1085 111.035 82.0835 110.205C82.0586 109.375 82.0291 108.526 81.986 107.689C81.8975 106.01 81.7591 104.339 81.5482 102.671C81.5028 102.313 80.9493 102.308 80.972 102.685H80.9629Z" fill="#010012"/>
<path d="M38.6171 124.954C41.4754 122.983 44.3043 120.969 47.1354 118.954C48.5479 117.947 49.9635 116.941 51.3821 115.935C52.6955 115.014 53.9909 114.034 55.352 113.163C56.5906 112.369 57.9041 111.67 59.3446 111.33C60.8622 110.969 62.432 111.114 63.9474 111.409C65.5354 111.72 67.0938 112.185 68.6931 112.455C70.0542 112.682 71.497 112.777 72.8468 112.38C73.5658 112.173 74.2273 111.803 74.7796 111.298C75.2786 110.844 75.6575 110.257 76.1407 109.783C76.3788 109.545 76.6723 109.371 76.9946 109.275C77.317 109.179 77.6581 109.165 77.9872 109.234C78.7971 109.356 79.5752 109.585 80.3987 109.381C80.959 109.243 80.6936 108.424 80.1401 108.535C79.4595 108.669 78.779 108.428 78.1166 108.338C77.4156 108.242 76.7328 108.279 76.1134 108.655C75.0382 109.306 74.5255 110.561 73.4162 111.178C72.3069 111.795 70.8596 111.838 69.6005 111.681C68.0126 111.482 66.4518 111.026 64.8843 110.679C63.3167 110.332 61.7084 110.073 60.1204 110.275C58.6224 110.495 57.1829 111.01 55.8851 111.79C54.5537 112.593 53.2664 113.466 52.0286 114.406L47.8023 117.459C44.6264 119.762 41.4233 122.055 38.2746 124.401C37.9411 124.648 38.2746 125.197 38.6194 124.954H38.6171Z" fill="#010012"/>
<path d="M40.0818 125.43C41.5904 125.718 42.7269 126.873 43.6479 128.032C44.6563 129.308 45.5541 130.667 46.3316 132.095C47.8894 134.943 48.9663 138.029 49.5188 141.228C49.8341 143.043 49.8999 144.858 49.9725 146.689C49.9952 147.247 50.7869 147.206 50.8278 146.668C50.9187 144.973 50.8137 143.273 50.5147 141.603C50.2508 139.935 49.8463 138.293 49.3056 136.694C48.224 133.466 46.5907 130.451 44.4782 127.783C43.3893 126.422 42.0486 125.061 40.2406 124.782C39.8209 124.72 39.6508 125.349 40.0795 125.43H40.0818Z" fill="#010012"/>
<path d="M28.3071 128.506C30.6527 128.317 33.0014 128.155 35.3531 128.02C36.51 127.952 37.6693 127.889 38.8262 127.837L40.6206 127.764C41.2153 127.767 41.8094 127.73 42.3991 127.653C42.7417 127.589 42.7326 126.995 42.381 126.952C41.7882 126.907 41.1929 126.907 40.6002 126.952C40.0036 126.972 39.4047 127.004 38.8081 127.034C37.6496 127.091 36.4919 127.161 35.335 127.242C32.9802 127.415 30.6361 127.642 28.3026 127.923C27.9464 127.966 27.9464 128.517 28.3162 128.488L28.3071 128.506Z" fill="#010012"/>
<path d="M22.8867 97.2378C23.2882 101.902 23.7941 106.555 24.266 111.21C24.7424 115.828 25.2263 120.447 25.7178 125.066C25.9991 127.693 26.2282 130.333 26.6116 132.949C26.6797 133.403 27.3852 133.418 27.3534 132.931C27.2037 130.596 26.9179 128.269 26.6729 125.944C26.4279 123.618 26.1829 121.289 25.9356 118.961C25.4411 114.342 24.9435 109.724 24.4429 105.105C24.1548 102.476 23.8576 99.8489 23.5355 97.2219C23.4856 96.8181 22.855 96.8204 22.8913 97.2378H22.8867Z" fill="#010012"/>
<path d="M15.1456 83.6783C14.5407 89.8441 14.1543 96.0243 13.9864 102.219C13.817 108.367 13.8594 114.516 14.1134 120.666C14.3607 126.826 14.7804 132.987 15.4632 139.114C15.5993 140.339 15.7263 141.666 16.5975 142.612C17.4686 143.558 18.7503 143.731 19.9299 143.842C22.8639 144.112 25.8112 144.211 28.7567 144.137C34.7261 144 40.6614 143.194 46.4512 141.734C47.1499 141.56 47.8463 141.373 48.5405 141.172C49.1031 141.008 48.8422 140.146 48.2751 140.3C42.6392 141.855 36.852 142.797 31.0139 143.109C28.0935 143.256 25.1671 143.241 22.2483 143.064C21.53 143.021 20.8109 142.968 20.091 142.902C19.5225 142.865 18.9597 142.766 18.4123 142.608C17.8815 142.463 17.4153 142.144 17.0897 141.7C16.7906 141.209 16.6018 140.659 16.5362 140.087C16.3094 138.69 16.2118 137.261 16.0825 135.852C15.9313 134.327 15.7989 132.802 15.6855 131.276C15.4496 128.268 15.2613 125.258 15.1207 122.245C14.8371 116.2 14.7509 110.147 14.8303 104.097C14.9097 98.0471 15.1728 91.9629 15.6061 85.9105C15.659 85.1634 15.715 84.4171 15.774 83.6715C15.8057 83.2654 15.1819 83.2926 15.1433 83.6874L15.1456 83.6783Z" fill="#010012"/>
<path d="M16.2274 81.849C16.6494 80.7148 17.0577 79.5646 17.5523 78.4463C18.0404 77.3478 18.5926 76.279 19.206 75.2454C19.5221 74.7145 19.8533 74.1935 20.1996 73.6824C20.3607 73.4555 20.5217 73.2151 20.6874 72.9837C20.7849 72.8521 20.7667 72.8476 20.9142 72.8476C21.0663 72.8529 21.2178 72.8681 21.3679 72.8929C22.5303 73.0369 23.6721 73.3147 24.7707 73.7209C25.3728 73.9449 25.9593 74.2087 26.5265 74.5104C27.1322 74.8302 27.6857 75.2227 28.2778 75.563C28.6975 75.8034 29.1603 75.1977 28.786 74.8711C27.8468 74.0521 26.6173 73.4714 25.4671 73.0177C24.2686 72.5391 23.015 72.2121 21.7354 72.0445C21.4234 71.9912 21.1081 71.9594 20.7917 71.9492C20.6307 71.9551 20.4736 72.0009 20.3346 72.0824C20.1957 72.164 20.0791 72.2788 19.9955 72.4165C19.6053 72.9459 19.2347 73.4865 18.8839 74.0385C18.1738 75.1504 17.5416 76.3101 16.9919 77.5094C16.3553 78.84 15.8574 80.2326 15.5061 81.6653C15.3972 82.1417 16.0664 82.2823 16.2274 81.8445V81.849Z" fill="#010012"/>
<path d="M22.2052 77.2372C23.4846 77.7113 24.8049 78.0833 26.1138 78.4622C27.4228 78.841 28.7317 79.2766 30.0679 79.5261C30.1689 79.5514 30.2759 79.5355 30.3653 79.4819C30.4546 79.4283 30.519 79.3414 30.5443 79.2403C30.5695 79.1392 30.5536 79.0322 30.5 78.9429C30.4464 78.8535 30.3595 78.7892 30.2584 78.7639C28.9744 78.3102 27.6269 78.0221 26.3157 77.6614C25.0045 77.3007 23.6911 76.906 22.364 76.5997C22.2813 76.5838 22.1956 76.6001 22.1247 76.6454C22.0537 76.6907 22.0028 76.7615 21.9824 76.8432C21.9621 76.9249 21.9738 77.0113 22.0153 77.0846C22.0567 77.1579 22.1247 77.2125 22.2052 77.2372Z" fill="#010012"/>
<path d="M22.1424 80.7726C23.204 81.2263 24.2657 81.7005 25.3183 82.1882C26.3709 82.6759 27.3985 83.2113 28.4443 83.7149C28.898 83.9418 29.2564 83.2816 28.8163 83.0344C27.7842 82.4718 26.7044 81.984 25.6404 81.5031C24.5765 81.0222 23.4876 80.5753 22.3874 80.1738C22.0471 80.049 21.8202 80.6275 22.1605 80.7658L22.1424 80.7726Z" fill="#010012"/>
<path d="M21.9263 84.7486C22.8496 85.3406 23.7842 85.9078 24.7279 86.4681C25.1816 86.7388 25.6353 87.0065 26.089 87.2711C26.5693 87.5718 27.067 87.8437 27.5794 88.0855C27.6601 88.1281 27.7532 88.1405 27.8422 88.1205C27.9312 88.1006 28.0101 88.0496 28.0649 87.9767C28.1192 87.9036 28.1448 87.8131 28.1369 87.7223C28.1289 87.6316 28.088 87.5469 28.0218 87.4844C27.1461 86.8197 26.1253 86.3138 25.1725 85.7694C24.2198 85.2249 23.2352 84.6737 22.2484 84.1542C22.1702 84.1169 22.0806 84.1109 21.9981 84.1373C21.9156 84.1638 21.8462 84.2208 21.8043 84.2966C21.7623 84.3724 21.7509 84.4614 21.7723 84.5454C21.7937 84.6294 21.8463 84.7021 21.9195 84.7486H21.9263Z" fill="#010012"/>
<path d="M20.4408 85.191C20.7834 87.117 21.135 89.0475 21.473 90.9644C21.6439 91.9263 21.8103 92.8889 21.9721 93.8522C22.056 94.3332 22.1354 94.8141 22.2239 95.2927C22.3124 95.7714 22.3373 96.2682 22.537 96.6947C22.5748 96.7532 22.6289 96.7995 22.6925 96.828C22.7562 96.8565 22.8267 96.8659 22.8956 96.8551C22.9645 96.8443 23.0288 96.8137 23.0807 96.7671C23.1326 96.7206 23.1699 96.6599 23.188 96.5926C23.2425 96.123 23.1086 95.6285 23.0406 95.1634C22.9725 94.6984 22.8886 94.1993 22.8137 93.7161C22.6458 92.7361 22.4719 91.7569 22.292 90.7784C21.9358 88.8411 21.5502 86.9106 21.1214 84.9869C21.0216 84.5332 20.3705 84.76 20.4408 85.191Z" fill="#010012"/>
<path d="M36.7516 69.8377C36.6155 71.4869 36.586 73.1475 36.5089 74.8035C36.4318 76.4187 36.3569 78.0362 36.2821 79.6536C36.1096 82.9233 35.9017 86.1907 35.6582 89.4559C35.5221 91.2934 35.3588 93.1309 35.2227 94.9684C35.2241 95.0295 35.2376 95.0896 35.2624 95.1455C35.2871 95.2014 35.3226 95.2518 35.3668 95.2939C35.4111 95.3361 35.4632 95.3691 35.5202 95.3911C35.5772 95.4131 35.638 95.4236 35.699 95.4221C35.8212 95.4157 35.9363 95.3628 36.0207 95.2742C36.1051 95.1856 36.1523 95.068 36.1528 94.9457C36.4635 91.6904 36.6654 88.4192 36.856 85.1525C37.0465 81.8858 37.2076 78.6169 37.2961 75.348C37.3483 73.5082 37.4322 71.6616 37.3709 69.8219C37.3573 69.4203 36.7902 69.4544 36.7584 69.8377H36.7516Z" fill="#010012"/>
<path d="M23.6872 96.5569C24.0933 96.144 24.6785 96.0125 25.2298 95.9104C25.9308 95.7811 26.6363 95.6835 27.344 95.5792C28.8231 95.3796 30.309 95.2412 31.8017 95.164C32.151 95.1482 32.5004 95.1323 32.852 95.1232C33.1901 95.0811 33.5332 95.1104 33.8592 95.2094C34.018 95.2752 34.2222 95.4363 34.1972 95.6291C34.1723 95.8219 33.9522 95.9353 33.8093 96.0125C33.274 96.3006 32.5979 96.4163 32.0127 96.5546C31.3179 96.717 30.6152 96.8434 29.9075 96.9335C28.3362 97.1467 26.7438 97.1536 25.1708 96.9539C24.7171 96.8904 24.5243 97.5936 24.9939 97.6662C26.6254 97.931 28.2833 97.9935 29.9302 97.8522C30.7416 97.7733 31.5465 97.6384 32.3393 97.4484C33.0199 97.2851 33.7957 97.1309 34.3991 96.7452C34.9685 96.3845 35.3065 95.7244 34.9912 95.0756C34.6464 94.3746 33.857 94.2022 33.1401 94.2113C31.4127 94.248 29.6892 94.3904 27.9792 94.6378C27.0401 94.7648 26.0941 94.9077 25.164 95.0915C24.429 95.2434 23.6849 95.4816 23.1813 96.0692C23.1223 96.1371 23.0918 96.2251 23.0961 96.315C23.1004 96.4048 23.1392 96.4895 23.2043 96.5515C23.2695 96.6135 23.3561 96.6479 23.446 96.6476C23.536 96.6474 23.6224 96.6125 23.6872 96.5501V96.5569Z" fill="#010012"/>
<path d="M21.5941 71.1423C21.5329 70.6092 21.424 69.9786 21.6962 69.4863C21.9432 69.1031 22.3078 68.8102 22.7352 68.6515C23.7946 68.1842 25.0037 68.064 26.138 67.9959C27.3834 67.9233 28.6333 67.9052 29.881 67.8961C31.1734 67.8779 32.4659 67.9256 33.7534 68.039C34.373 68.0724 34.9886 68.1597 35.5932 68.2999C35.9266 68.3929 36.3599 68.5585 36.4144 68.9464C36.4195 69.0535 36.4624 69.1554 36.5355 69.2339C36.6086 69.3124 36.7071 69.3624 36.8136 69.3752C36.9204 69.3883 37.0283 69.3618 37.1169 69.3008C37.2055 69.2398 37.2687 69.1484 37.2945 69.044C37.4601 67.7963 36.031 67.3834 35.0623 67.2586C33.5938 67.0832 32.1152 67.0075 30.6364 67.0318C29.2186 67.0318 27.7963 67.0703 26.3807 67.1339C25.0468 67.1951 23.6358 67.3108 22.3972 67.8507C21.7992 68.0747 21.2909 68.4882 20.9499 69.0281C20.5574 69.7268 20.6754 70.514 20.8523 71.2558C20.9476 71.6596 21.6327 71.5597 21.5851 71.1378L21.5941 71.1423Z" fill="#010012"/>
<path d="M24.1298 66.1404C24.1357 65.8891 24.1622 65.6388 24.2092 65.3918C24.2174 65.2709 24.2498 65.1529 24.3045 65.0447C24.216 65.1377 24.4451 65.0674 24.4927 65.0606C25.0039 65.0062 25.5159 64.9646 26.0285 64.9358C27.0721 64.8746 28.1178 64.8564 29.1614 64.8927C30.1883 64.9255 31.2128 65.0118 32.2307 65.1514C32.6824 65.1847 33.1275 65.2801 33.5532 65.4349C33.864 65.5756 34.1816 65.8886 34.0909 66.2539C33.9661 66.7507 34.6784 66.9027 34.8463 66.4421C35.1548 65.5869 34.4334 64.8701 33.6803 64.616C33.2518 64.4941 32.8128 64.4129 32.369 64.3733C31.8813 64.3075 31.389 64.2508 30.8968 64.2008C28.907 63.9963 26.902 63.9857 24.9102 64.1691C24.4565 64.2122 23.8167 64.1691 23.5695 64.6409C23.3222 65.1128 23.3267 65.7457 23.4129 66.2539C23.4855 66.6803 24.1162 66.5283 24.1298 66.1404Z" fill="#010012"/>
<path d="M59.1797 137.085C58.8772 143.276 58.5974 149.469 58.3403 155.662C58.0832 161.855 57.8216 168.046 57.5554 174.236C57.408 177.709 57.2582 181.183 57.1312 184.658C57.1108 185.227 57.9955 185.202 58.0205 184.635C58.3018 178.444 58.5286 172.251 58.7555 166.056C58.9823 159.861 59.2455 153.675 59.4678 147.481C59.5933 144.011 59.7113 140.538 59.8217 137.064C59.8353 136.647 59.1956 136.67 59.1774 137.08L59.1797 137.085Z" fill="#010012"/>
<path d="M106.621 135.94C106.347 139.23 106.168 142.535 105.986 145.831C105.805 149.127 105.63 152.426 105.471 155.724C105.158 162.283 104.889 168.843 104.664 175.404C104.534 179.097 104.353 182.797 104.344 186.49C104.344 187.114 105.276 187.077 105.306 186.467C105.469 183.171 105.505 179.866 105.605 176.567C105.705 173.269 105.816 169.97 105.936 166.672C106.177 160.111 106.448 153.553 106.751 146.997C106.919 143.309 107.132 139.618 107.245 135.925C107.259 135.518 106.653 135.548 106.621 135.94Z" fill="#010012"/>
<path d="M68.9217 182.994C72.1484 184.922 75.655 186.337 79.3161 187.188C82.992 188.063 86.7746 188.403 90.5475 188.2C92.6696 188.089 94.7781 187.794 96.8495 187.32C97.4053 187.191 97.1444 186.356 96.5931 186.474C89.36 188.035 81.8318 187.507 74.8879 184.949C72.9501 184.236 71.0674 183.38 69.2552 182.39C69.1763 182.354 69.0867 182.35 69.0044 182.377C68.922 182.404 68.8529 182.461 68.8109 182.537C68.7688 182.613 68.7569 182.702 68.7774 182.786C68.7979 182.87 68.8495 182.944 68.9217 182.991V182.994Z" fill="#010012"/>
<path d="M58.767 187.476C61.5169 188.874 64.3906 190.013 67.3511 190.879C70.2857 191.768 73.2824 192.436 76.3163 192.88C82.38 193.765 88.6162 193.828 94.6731 192.825C97.9852 192.279 101.311 191.319 104.201 189.561C104.718 189.246 104.23 188.463 103.706 188.765C98.5546 191.743 92.4069 192.494 86.5496 192.621C80.5191 192.748 74.5026 191.991 68.6918 190.373C65.4195 189.427 62.2138 188.265 59.0959 186.893C58.708 186.73 58.3814 187.277 58.7716 187.479L58.767 187.476Z" fill="#010012"/>
<path d="M83.3682 213.671C84.9902 212.405 86.6689 211.219 88.3771 210.075C89.2255 209.508 90.0853 208.959 90.9564 208.428C91.3919 208.163 91.8298 207.904 92.2698 207.646C92.7408 207.412 93.1889 207.135 93.6083 206.818C93.9032 206.559 93.5652 206.08 93.2181 206.187C92.7276 206.382 92.2604 206.631 91.8252 206.929C91.3715 207.197 90.9178 207.47 90.4641 207.748C89.5975 208.286 88.7423 208.841 87.8984 209.413C86.1857 210.581 84.5433 211.843 82.9462 213.161C82.6581 213.399 83.0642 213.902 83.3614 213.671H83.3682Z" fill="#010012"/>
<path d="M88.1339 212.593C86.8801 216.894 85.6786 221.211 84.5292 225.544C83.3798 229.877 82.2751 234.201 81.2149 238.516C80.616 240.963 79.9854 243.409 79.4681 245.872C79.3524 246.419 80.1759 246.626 80.312 246.083C80.8565 243.91 81.3261 241.719 81.841 239.539C82.356 237.359 82.8845 235.181 83.429 233.005C84.5027 228.676 85.6151 224.355 86.766 220.043C87.4148 217.607 88.0688 215.173 88.7282 212.741C88.8326 212.357 88.2405 212.215 88.1293 212.593H88.1339Z" fill="#010012"/>
<path d="M112.083 178.684C112.523 187.758 113.265 196.816 114.186 205.852C115.107 214.887 116.228 223.907 117.569 232.895C117.941 235.408 118.331 237.92 118.739 240.429C119.148 242.924 119.545 245.451 120.071 247.935C120.166 248.389 120.94 248.266 120.876 247.806C120.568 245.562 120.166 243.33 119.81 241.093C119.454 238.856 119.091 236.602 118.748 234.353C118.068 229.86 117.43 225.362 116.834 220.858C115.663 211.89 114.68 202.901 113.885 193.892C113.431 188.822 113.05 183.747 112.689 178.67C112.662 178.28 112.058 178.289 112.077 178.684H112.083Z" fill="#010012"/>
<path d="M132.003 197.937C134.09 198.604 136.175 199.275 138.237 200.012C140.299 200.75 142.32 201.559 144.346 202.399C144.45 202.455 144.572 202.468 144.686 202.435C144.799 202.402 144.895 202.327 144.954 202.224C145.01 202.12 145.023 201.998 144.99 201.885C144.958 201.771 144.882 201.675 144.779 201.616C140.694 199.844 136.485 198.374 132.185 197.218C131.717 197.095 131.554 197.791 132.003 197.937Z" fill="#010012"/>
<path d="M138.713 202.58C138.864 208.195 138.948 213.812 138.965 219.43C138.982 225.049 138.906 230.666 138.738 236.283C138.645 239.446 138.439 242.612 138.416 245.775C138.419 245.895 138.47 246.009 138.557 246.092C138.644 246.175 138.761 246.22 138.881 246.217C139.001 246.214 139.116 246.163 139.199 246.076C139.282 245.989 139.326 245.872 139.323 245.752C139.568 242.939 139.607 240.099 139.689 237.275C139.77 234.486 139.829 231.697 139.863 228.908C139.931 223.292 139.894 217.675 139.75 212.058C139.671 208.891 139.551 205.726 139.389 202.562C139.387 202.472 139.349 202.386 139.283 202.324C139.218 202.262 139.13 202.228 139.04 202.231C138.95 202.233 138.864 202.271 138.802 202.337C138.74 202.402 138.706 202.49 138.709 202.58H138.713Z" fill="#010012"/>
<path d="M139.098 209.567C140.375 214.733 141.888 219.844 143.322 224.966C144.756 230.088 146.203 235.211 147.646 240.333C148.455 243.207 149.264 246.076 150.073 248.942C150.232 249.507 151.11 249.244 150.949 248.679C149.504 243.557 148.059 238.435 146.611 233.314C145.164 228.194 143.712 223.074 142.256 217.956C141.437 215.091 140.636 212.217 139.733 209.377C139.708 209.293 139.65 209.222 139.573 209.18C139.495 209.139 139.405 209.129 139.32 209.155C139.236 209.18 139.165 209.238 139.124 209.315C139.082 209.392 139.073 209.483 139.098 209.567Z" fill="#010012"/>
<path d="M162.735 186.515C163.422 194.822 164.134 203.127 164.872 211.43C165.594 219.692 166.33 227.954 167.082 236.216C167.293 238.534 167.506 240.852 167.719 243.169L168.035 246.571C168.143 247.753 168.221 248.94 168.404 250.113C168.484 250.609 169.232 250.632 169.219 250.092C169.169 248.005 168.892 245.909 168.708 243.831C168.525 241.753 168.343 239.657 168.155 237.572C167.781 233.44 167.403 229.309 167.021 225.179C166.264 216.917 165.498 208.656 164.723 200.396C164.285 195.759 163.839 191.123 163.384 186.487C163.343 186.07 162.69 186.079 162.724 186.503L162.735 186.515Z" fill="#010012"/>
<path d="M127.095 110.273C128.853 112.568 131.485 114.013 134.298 114.56C137.353 115.159 140.52 114.694 143.406 113.578C144.248 113.259 145.07 112.89 145.867 112.473C146.695 112.058 147.483 111.571 148.224 111.017C148.306 110.963 148.364 110.879 148.385 110.783C148.406 110.687 148.389 110.587 148.337 110.503C148.286 110.42 148.203 110.36 148.108 110.336C148.013 110.313 147.912 110.327 147.827 110.377C146.466 111.107 145.148 111.91 143.712 112.507C142.295 113.109 140.809 113.537 139.289 113.78C136.537 114.197 133.672 113.868 131.163 112.632C129.794 111.968 128.581 111.023 127.601 109.86C127.374 109.574 126.864 109.975 127.093 110.273H127.095Z" fill="#010012"/>
<path d="M74.8864 35.0113C73.4006 39.8047 74.7798 44.8091 76.7761 49.2327C77.8174 51.5375 79.0129 53.7697 80.1676 56.0224L83.7836 63.0548L85.8003 66.9725C86.1451 67.641 86.4929 68.3087 86.8438 68.9756C87.1909 69.6425 87.5244 70.3231 87.9123 70.9628C88.1573 71.3644 88.8877 71.074 88.6904 70.6135C88.1732 69.4044 87.5244 68.2429 86.9255 67.0723C86.3266 65.9018 85.7504 64.8038 85.1628 63.6695C83.9696 61.3602 82.7764 59.0516 81.5831 56.7438C80.4262 54.5093 79.2352 52.2838 78.1327 50.0199C77.0733 47.8421 76.1183 45.6008 75.5534 43.2393C74.925 40.5942 74.7571 37.8107 75.4853 35.1656C75.592 34.7822 75.0044 34.6416 74.8864 35.0181V35.0113Z" fill="#010012"/>
<path d="M71.9743 39.2292C70.7649 40.4719 70.0697 42.1257 70.0279 43.8592C70.0036 44.7383 70.1536 45.6135 70.4694 46.4343C70.7852 47.2551 71.2604 48.0052 71.8677 48.6413C72.1921 48.9657 72.8114 48.4961 72.5097 48.1195C71.5297 46.899 70.8832 45.4721 70.8922 43.8842C70.9148 42.3524 71.4873 40.8799 72.5052 39.7351C72.5646 39.6634 72.5947 39.5719 72.5893 39.4789C72.5839 39.3859 72.5433 39.2985 72.4759 39.2343C72.4085 39.17 72.3193 39.1338 72.2261 39.1328C72.133 39.1319 72.043 39.1663 71.9743 39.2292Z" fill="#010012"/>
<path d="M68.8058 48.4925C70.3408 52.4669 71.9704 56.4028 73.6944 60.3001C75.4185 64.1975 77.253 68.0683 79.1978 71.9127C80.2845 74.0474 81.396 76.1775 82.5757 78.2645C82.832 78.7182 83.5035 78.2986 83.2562 77.8403C81.3076 74.0678 79.3544 70.2975 77.501 66.4773C75.6476 62.6571 73.8714 58.8029 72.1654 54.9079C71.2127 52.718 70.2848 50.519 69.382 48.311C69.2368 47.9549 68.6606 48.1205 68.8012 48.4857L68.8058 48.4925Z" fill="#010012"/>
<path d="M58.9817 37.4137C60.1152 38.9664 61.3346 40.4546 62.634 41.8714C63.9197 43.3111 65.3145 44.6497 66.8058 45.8753C67.1733 46.1657 67.6723 45.6689 67.3162 45.3377C65.9279 44.0446 64.5168 42.7969 63.2102 41.4177C61.8992 40.0418 60.6626 38.597 59.5057 37.0893C59.2788 36.7785 58.7435 37.0893 58.9817 37.4137Z" fill="#010012"/>
<path d="M60.5902 33.6429C61.2783 34.7787 62.0133 35.8842 62.7952 36.9595C63.1763 37.4812 63.5665 37.9962 63.9725 38.4998C64.3758 39.0492 64.8194 39.5678 65.2996 40.0515C65.6127 40.3396 66.1594 39.9403 65.8962 39.5683C65.5287 39.0443 65.0614 38.5769 64.6553 38.0824C64.2493 37.5879 63.8183 37.0457 63.4167 36.5149C62.6228 35.4713 61.8666 34.3983 61.1482 33.2958C61.0995 33.2272 61.0265 33.1797 60.944 33.1629C60.8616 33.1461 60.7758 33.1614 60.7042 33.2056C60.6325 33.2498 60.5804 33.3196 60.5584 33.4008C60.5364 33.482 60.5461 33.5686 60.5856 33.6429H60.5902Z" fill="#010012"/>
<path d="M62.4501 30.7518C63.1465 32.1129 63.8611 33.474 64.6188 34.7943C64.9863 35.4431 65.3606 36.0881 65.7417 36.7294C66.1133 37.4186 66.5277 38.0838 66.9826 38.7211C67.0352 38.8063 67.1195 38.867 67.217 38.89C67.3144 38.9129 67.4169 38.8963 67.5021 38.8436C67.5872 38.791 67.6479 38.7067 67.6709 38.6093C67.6939 38.5118 67.6772 38.4093 67.6246 38.3241C67.2934 37.6436 66.8419 37.0039 66.4495 36.3573C66.057 35.7108 65.66 35.0484 65.2744 34.3905C64.5008 33.0725 63.7318 31.7545 62.9832 30.4229C62.7858 30.0667 62.2686 30.3957 62.4501 30.7518Z" fill="#010012"/>
<path d="M66.0422 29.8396C66.7499 31.1599 67.4456 32.4862 68.1292 33.8186C68.4627 34.4697 68.7871 35.123 69.1137 35.7763C69.2861 36.1196 69.457 36.4622 69.6264 36.804C69.7785 37.1557 69.9527 37.4975 70.1482 37.8271C70.1933 37.8979 70.2623 37.9502 70.3428 37.9742C70.4232 37.9983 70.5096 37.9926 70.5862 37.9582C70.6628 37.9237 70.7244 37.8629 70.7598 37.7867C70.7952 37.7106 70.8019 37.6242 70.7788 37.5435C70.552 36.8312 70.1414 36.1438 69.8124 35.4746C69.4835 34.8054 69.1319 34.1385 68.7893 33.4761C68.0861 32.1346 67.3466 30.8143 66.5707 29.5152C66.3643 29.1704 65.8561 29.4903 66.0422 29.8396Z" fill="#010012"/>
<path d="M52.1043 38.253C52.0716 39.6154 52.2096 40.9765 52.5149 42.3046C52.7932 43.6406 53.2785 44.925 53.9532 46.1112C54.146 46.431 54.7245 46.1974 54.5702 45.8322C54.0256 44.6398 53.578 43.4055 53.2318 42.1413C52.921 40.8629 52.7597 39.5527 52.7508 38.2372C52.7508 37.8197 52.1157 37.8402 52.1043 38.253Z" fill="#010012"/>
<path d="M49.4999 42.7542C49.7559 44.1535 50.2209 45.5063 50.8792 46.7672C51.0834 47.1506 51.6482 46.7967 51.4531 46.4134C50.8273 45.2019 50.3599 43.9149 50.0625 42.5841C49.9831 42.2143 49.4319 42.389 49.4999 42.7542Z" fill="#010012"/>
<path d="M125.662 88.2612C124.621 83.6902 124.775 78.4113 127.364 74.3597C128.609 72.4368 130.398 70.9284 132.504 70.0269C133.341 69.6614 134.211 69.3809 135.104 69.1898C135.249 69.1603 135.397 69.1308 135.544 69.1058L135.621 69.0922C135.744 69.0718 135.526 69.1058 135.639 69.0922L135.785 69.0718C135.941 69.0514 136.095 69.0378 136.25 69.0287C137.597 68.955 138.946 69.1296 140.231 69.5437C141.044 69.8325 141.836 70.1766 142.601 70.5736C142.698 70.6245 142.811 70.6354 142.915 70.6042C143.02 70.5729 143.108 70.5018 143.161 70.4062C143.214 70.3106 143.227 70.1981 143.198 70.0928C143.169 69.9875 143.1 69.8979 143.005 69.8431C142.325 69.3889 141.584 69.0323 140.805 68.7837C139.657 68.3766 138.454 68.1471 137.236 68.1032C135.755 68.0782 134.284 68.3449 132.906 68.8881C130.607 69.7162 128.598 71.1928 127.121 73.1393C125.741 75.0667 124.837 77.2941 124.485 79.6386C124.04 82.5775 124.218 85.5773 125.009 88.4427C125.12 88.8692 125.758 88.6696 125.662 88.2476V88.2612Z" fill="#010012"/>
<path d="M128.731 88.8505C128.214 85.4137 129.437 82.0223 131.558 79.3364C133.715 76.6141 136.596 74.4749 139.484 72.5784C142.372 70.682 145.53 69.0418 148.962 68.3726C150.448 68.0822 152.095 67.8871 153.581 68.2683C154.197 68.3992 154.761 68.7085 155.203 69.1575C155.738 69.7541 155.799 70.5821 155.717 71.3421C155.402 74.3025 153.558 76.8433 151.065 78.3745C150.745 78.5719 150.43 78.7692 150.094 78.9371C149.656 79.164 149.987 79.8785 150.445 79.7152C153.476 78.6377 155.756 75.7816 156.502 72.6828C156.746 71.8037 156.803 70.8832 156.668 69.981C156.512 69.1781 156.047 68.4686 155.373 68.0051C154.107 67.0977 152.424 67.0455 150.924 67.1544C147.199 67.4312 143.665 68.9239 140.489 70.8317C138.905 71.7923 137.376 72.8389 135.907 73.9668C134.403 75.0751 133.009 76.3247 131.744 77.6985C129.33 80.3912 127.536 83.9233 127.831 87.6278C127.872 88.0723 127.948 88.513 128.057 88.9458C128.146 89.311 128.781 89.2203 128.724 88.8392L128.731 88.8505Z" fill="#010012"/>
<path d="M137.136 76.0153C139.523 75.5568 141.991 75.756 144.274 76.5915C146.557 77.427 148.57 78.8675 150.098 80.7588C150.459 81.2125 150.779 81.6866 151.126 82.1335C151.177 82.2108 151.253 82.2678 151.342 82.2943C151.431 82.3208 151.526 82.3153 151.611 82.2787C151.695 82.2413 151.763 82.1747 151.801 82.0913C151.84 82.0079 151.848 81.9134 151.822 81.825C151.398 80.8473 150.665 79.9784 149.937 79.2117C149.187 78.4372 148.349 77.7521 147.442 77.17C145.902 76.1728 144.176 75.4979 142.368 75.186C140.56 74.8741 138.707 74.9317 136.922 75.3552C136.469 75.4618 136.696 76.1151 137.127 76.0357L137.136 76.0153Z" fill="#010012"/>
<path d="M144.632 81.181C145.281 81.73 145.93 82.2767 146.585 82.8189C147.241 83.3611 147.901 83.9282 148.611 84.4069C148.983 84.6587 149.385 84.0802 149.065 83.783C148.457 83.2091 147.776 82.7077 147.118 82.1951C146.46 81.6824 145.789 81.1697 145.12 80.6615C145.05 80.5984 144.959 80.5644 144.866 80.5665C144.772 80.5686 144.683 80.6067 144.616 80.6729C144.55 80.7402 144.514 80.8306 144.514 80.9247C144.514 81.0188 144.55 81.1091 144.616 81.1765L144.632 81.181Z" fill="#010012"/>
<path d="M137.04 79.2581C139.027 80.2177 140.969 81.2499 142.907 82.3048C142.995 82.3406 143.094 82.3428 143.184 82.311C143.275 82.2791 143.35 82.2154 143.397 82.1318C143.443 82.0482 143.458 81.9504 143.437 81.857C143.417 81.7635 143.363 81.6807 143.285 81.6242C141.399 80.4797 139.427 79.4823 137.387 78.6411C136.97 78.4664 136.618 79.0608 137.04 79.2649V79.2581Z" fill="#010012"/>
<path d="M150.013 89.7259C150.351 89.4991 150.782 89.7509 150.921 90.0934C151.104 90.5471 150.998 91.0825 150.825 91.5113C150.637 91.9697 150.347 92.3794 149.977 92.709C149.802 92.8629 149.61 92.9968 149.405 93.1083C149.178 93.2331 148.824 93.2989 148.668 93.5076C148.623 93.5576 148.593 93.6181 148.578 93.6833C148.563 93.7486 148.565 93.8165 148.584 93.8807C148.603 93.9448 148.638 94.0032 148.686 94.0502C148.733 94.0973 148.792 94.1314 148.856 94.1495C149.185 94.272 149.652 93.9976 149.931 93.8365C150.235 93.66 150.514 93.4442 150.762 93.1945C151.245 92.7107 151.592 92.1083 151.769 91.4477C151.957 90.7354 151.932 89.9097 151.422 89.3335C151.19 89.0742 150.868 88.9134 150.522 88.8838C150.176 88.8543 149.831 88.9584 149.559 89.1747C149.249 89.4333 149.677 89.9596 150.013 89.7259Z" fill="#010012"/>
<path d="M145.807 98.9924C145.603 100.878 145.447 102.769 145.34 104.664C145.288 105.6 145.248 106.537 145.22 107.477C145.206 107.944 145.195 108.413 145.186 108.883C145.186 109.337 145.093 109.904 145.249 110.326C145.275 110.397 145.322 110.458 145.384 110.501C145.446 110.543 145.521 110.565 145.596 110.563C145.671 110.561 145.744 110.535 145.804 110.489C145.864 110.444 145.908 110.38 145.93 110.308C145.993 110.075 146.019 109.834 146.005 109.593C146.005 109.35 146.005 109.105 146.018 108.863C146.018 108.409 146.032 107.955 146.041 107.513C146.064 106.556 146.095 105.599 146.134 104.643C146.213 102.754 146.32 100.864 146.465 98.972C146.497 98.5432 145.846 98.575 145.803 98.9879L145.807 98.9924Z" fill="#010012"/>
<path d="M127.315 89.5605C127.022 89.5937 126.743 89.7045 126.507 89.8816C126.271 90.0587 126.086 90.2955 125.972 90.5677C125.682 91.2369 125.784 91.9719 125.997 92.6479C126.21 93.324 126.451 93.9727 126.93 94.4627C127.408 94.9527 128.175 95.2477 128.797 94.8983C128.869 94.8515 128.924 94.7822 128.953 94.7011C128.983 94.62 128.985 94.5315 128.959 94.4492C128.933 94.3669 128.881 94.2952 128.811 94.2452C128.741 94.1953 128.656 94.1697 128.57 94.1724C128.367 94.201 128.161 94.18 127.969 94.1113C127.776 94.0425 127.603 93.928 127.465 93.7777C127.159 93.3799 126.932 92.9271 126.796 92.4438C126.63 91.9901 126.471 91.4524 126.605 90.9602C126.644 90.7636 126.741 90.5831 126.883 90.4413C127.024 90.2996 127.205 90.2031 127.401 90.1639C127.744 90.1049 127.651 89.5242 127.304 89.5559L127.315 89.5605Z" fill="#010012"/>
<path d="M129.211 95.3907C130.22 98.4781 131.783 101.488 133.941 103.938C134.898 105.025 136.087 106.014 137.511 106.398C139.027 106.804 140.61 106.373 141.876 105.49C143.393 104.44 144.519 102.818 145.369 101.203C145.63 100.706 144.934 100.356 144.625 100.792C143.745 102.035 142.996 103.374 141.808 104.363C140.76 105.234 139.371 105.81 137.994 105.526C136.674 105.252 135.599 104.36 134.71 103.387C133.75 102.301 132.899 101.123 132.169 99.871C131.264 98.3813 130.489 96.8163 129.853 95.1933C129.698 94.7963 129.075 94.9665 129.211 95.3861V95.3907Z" fill="#010012"/>
<path d="M130.773 102.654C130.755 103.872 130.752 105.092 130.786 106.313C130.805 106.912 130.834 107.511 130.868 108.109C130.883 108.728 130.935 109.346 131.025 109.958C131.111 110.432 131.83 110.276 131.834 109.829C131.834 109.232 131.753 108.629 131.707 108.032C131.662 107.436 131.623 106.835 131.585 106.236C131.508 105.038 131.447 103.838 131.41 102.638C131.402 102.558 131.364 102.484 131.303 102.431C131.243 102.378 131.165 102.35 131.084 102.352C131.004 102.354 130.927 102.386 130.869 102.442C130.812 102.498 130.777 102.573 130.773 102.654Z" fill="#010012"/>
<path d="M134.42 86.7925C135.57 86.3388 136.847 86.2321 137.993 86.763C138.099 86.8177 138.222 86.8296 138.337 86.7962C138.452 86.7629 138.55 86.6869 138.61 86.5838C138.667 86.4789 138.68 86.3558 138.647 86.2412C138.614 86.1266 138.537 86.0296 138.433 85.9713C137.072 85.3678 135.411 85.3384 134.123 86.1391C133.787 86.3501 134.025 86.9467 134.418 86.7925H134.42Z" fill="#010012"/>
<path d="M143.659 87.8209L143.745 87.7732C143.745 87.7732 143.818 87.7415 143.784 87.7551C143.749 87.7687 143.836 87.7369 143.845 87.7347L143.915 87.7097C144.031 87.6734 144.142 87.6417 144.267 87.6167C144.287 87.6167 144.378 87.6008 144.28 87.6167H144.357C144.414 87.6167 144.471 87.6167 144.528 87.6031H144.702H144.798C144.82 87.6031 144.911 87.619 144.809 87.6031C144.923 87.6193 145.035 87.6413 145.147 87.6689C145.204 87.6848 145.258 87.7006 145.313 87.7211C145.367 87.7415 145.415 87.7664 145.324 87.7211L145.394 87.7528C145.504 87.8053 145.609 87.866 145.709 87.9343C145.655 87.8867 145.766 87.9706 145.709 87.9343C145.754 87.9731 145.801 88.0087 145.85 88.0409C145.901 88.0777 145.955 88.1103 146.011 88.1385C146.088 88.177 146.173 88.1931 146.258 88.1851C146.343 88.1771 146.424 88.1452 146.492 88.0931C146.559 88.0404 146.608 87.969 146.633 87.8882C146.659 87.8073 146.659 87.7206 146.635 87.6394C146.477 87.3148 146.203 87.062 145.866 86.9316C145.564 86.7914 145.24 86.7061 144.909 86.6798C144.613 86.6562 144.315 86.6854 144.029 86.766C143.719 86.8644 143.433 87.0267 143.189 87.2424C143.126 87.3079 143.09 87.3943 143.086 87.4851C143.083 87.5759 143.113 87.6647 143.171 87.7347C143.228 87.8052 143.309 87.8527 143.399 87.8685C143.488 87.8843 143.581 87.8674 143.659 87.8209Z" fill="#010012"/>
<path d="M140.815 87.5196C140.567 88.287 140.397 89.0774 140.307 89.8789C140.248 90.5322 140.391 91.2513 141.01 91.5939C141.343 91.736 141.699 91.813 142.061 91.8207C142.213 91.8412 142.514 91.8865 142.533 92.0589C142.551 92.2313 142.369 92.4832 142.306 92.6193L142.052 93.2363C141.881 93.6424 141.684 94.0439 141.543 94.4613C141.371 94.9717 142.181 95.2802 142.421 94.8038C142.616 94.4182 142.764 93.9963 142.93 93.5947C143.113 93.2029 143.276 92.8015 143.417 92.3924C143.633 91.6393 143.061 91.0676 142.349 90.9519C142.067 90.9065 141.65 90.9632 141.405 90.7886C141.16 90.6139 141.178 90.3122 141.167 90.0694C141.198 89.2701 141.302 88.4752 141.475 87.6943C141.493 87.6082 141.477 87.5185 141.43 87.444C141.383 87.3696 141.309 87.3162 141.224 87.2951C141.138 87.274 141.048 87.2867 140.972 87.3307C140.896 87.3747 140.84 87.4465 140.815 87.531V87.5196Z" fill="#010012"/>
<path d="M136.838 97.1537C138.548 97.3805 140.261 97.5393 141.983 97.6346C142.541 97.6641 142.518 96.7952 141.962 96.7657C140.279 96.6818 138.596 96.5774 136.915 96.4618C136.525 96.4345 136.445 97.0992 136.838 97.1537Z" fill="#010012"/>
<path d="M137.544 99.5104C137.975 99.8541 138.51 100.041 139.062 100.041C139.581 100.041 140.23 99.8756 140.577 99.4605C140.641 99.3918 140.678 99.3024 140.681 99.2086C140.685 99.1149 140.654 99.0231 140.595 98.9501C140.535 98.8787 140.451 98.8308 140.359 98.8146C140.267 98.7985 140.173 98.8151 140.092 98.8616C140.046 98.882 140.003 98.9069 139.958 98.9296L139.874 98.9727C139.874 98.9727 139.797 99.0068 139.842 98.9886L139.806 99.0022L139.738 99.0295C139.688 99.0524 139.636 99.0721 139.583 99.0884C139.483 99.1205 139.381 99.147 139.277 99.1678C139.211 99.1814 139.347 99.1678 139.277 99.1678H139.202C139.148 99.1678 139.093 99.1792 139.037 99.1814C138.938 99.1871 138.838 99.1871 138.739 99.1814C138.801 99.1814 138.762 99.1814 138.724 99.1814L138.649 99.1678C138.601 99.1678 138.551 99.1519 138.504 99.1406C138.456 99.1293 138.397 99.1157 138.343 99.0998C138.288 99.0839 138.204 99.0499 138.263 99.0748C138.161 99.0316 138.062 98.98 137.968 98.9206C137.889 98.8779 137.798 98.8652 137.71 98.8848C137.623 98.9044 137.545 98.955 137.492 99.0272C137.439 99.099 137.414 99.1876 137.421 99.2765C137.429 99.3654 137.468 99.4485 137.533 99.5104H137.544Z" fill="#010012"/>
<path d="M160.158 65.787C160.321 67.636 160.061 69.4976 159.398 71.2315C159.233 71.6693 159.997 71.9733 160.172 71.5332C160.91 69.7039 161.145 67.7105 160.852 65.7598C160.789 65.3424 160.133 65.3333 160.172 65.7757L160.158 65.787Z" fill="#010012"/>
<path d="M162.722 68.1825C162.686 69.3654 162.237 70.4985 161.454 71.3857C161.082 71.8008 161.706 72.3929 162.082 71.9823C162.556 71.4713 162.921 70.8694 163.155 70.2131C163.389 69.5568 163.487 68.8598 163.444 68.1644C163.434 68.0739 163.391 67.9901 163.323 67.93C163.255 67.8698 163.167 67.8377 163.076 67.84C162.985 67.8423 162.898 67.8788 162.833 67.9423C162.768 68.0059 162.729 68.0917 162.724 68.1825H162.722Z" fill="#010012"/>
<path d="M152.391 103.943C154.012 101.953 156.059 100.352 158.382 99.2585C160.704 98.1648 163.242 97.6058 165.809 97.623C168.59 97.6479 171.206 98.4533 173.64 99.7713C175.036 100.549 176.39 101.4 177.696 102.321C179.166 103.327 180.625 104.346 182.072 105.379C183.686 106.522 185.29 107.676 186.886 108.839C188.474 109.998 190.062 111.193 191.699 112.284C192.074 112.532 192.523 111.931 192.169 111.645C190.747 110.51 189.256 109.44 187.779 108.367C186.303 107.294 184.883 106.266 183.426 105.227C181.97 104.188 180.445 103.115 178.941 102.083C177.58 101.146 176.219 100.209 174.79 99.3811C173.403 98.5565 171.926 97.895 170.387 97.4097C169.128 97.037 167.828 96.8162 166.517 96.7519C163.867 96.6217 161.222 97.0868 158.776 98.113C156.008 99.2459 153.603 101.117 151.826 103.523C151.599 103.846 152.141 104.247 152.391 103.936V103.943Z" fill="#010012"/>
<path d="M193.778 114.246C194.853 115.5 196.087 116.85 197.77 117.218C198.712 117.422 199.669 117.17 200.61 117.367C201.493 117.569 202.32 117.964 203.033 118.522C203.909 119.189 204.637 120.017 205.456 120.75C205.778 121.038 206.363 120.623 206.075 120.246C204.914 118.749 203.426 117.36 201.618 116.698C201.175 116.538 200.714 116.435 200.245 116.39C199.75 116.367 199.254 116.374 198.759 116.41C197.934 116.41 197.129 116.155 196.454 115.679C195.656 115.116 194.925 114.462 194.277 113.731C193.955 113.395 193.492 113.906 193.784 114.246H193.778Z" fill="#010012"/>
<path d="M178.281 116.25C179.44 120.334 180.55 124.451 181.561 128.587C182.573 132.722 183.455 136.846 184.247 141.009C184.474 142.182 184.68 143.355 184.891 144.527C185.102 145.7 185.243 146.928 185.547 148.091C185.579 148.182 185.641 148.259 185.723 148.308C185.806 148.357 185.903 148.376 185.997 148.36C186.092 148.345 186.178 148.297 186.241 148.225C186.304 148.152 186.339 148.06 186.341 147.964C186.247 146.898 186.095 145.838 185.887 144.788C185.713 143.74 185.524 142.692 185.329 141.646C184.939 139.555 184.518 137.47 184.066 135.392C183.158 131.218 182.14 127.067 180.981 122.956C180.327 120.642 179.627 118.344 178.88 116.062C178.856 115.984 178.803 115.919 178.731 115.88C178.66 115.842 178.576 115.833 178.498 115.857C178.42 115.88 178.354 115.934 178.316 116.005C178.277 116.077 178.269 116.161 178.292 116.239L178.281 116.25Z" fill="#010012"/>
<path d="M154.714 108.686C155.676 108.364 156.604 107.976 157.586 107.713C158.542 107.454 159.516 107.266 160.499 107.152C162.49 106.924 164.503 106.991 166.474 107.352C167.596 107.564 168.702 107.855 169.784 108.221C170.238 108.368 170.524 107.633 170.086 107.454C166.229 105.866 161.742 105.732 157.718 106.801C156.602 107.098 155.429 107.459 154.424 108.042C154.354 108.089 154.303 108.16 154.279 108.241C154.256 108.322 154.263 108.409 154.297 108.486C154.332 108.564 154.393 108.626 154.469 108.662C154.546 108.699 154.632 108.707 154.714 108.686Z" fill="#010012"/>
<path d="M175.371 110.158C176.344 109.509 177.376 110.737 177.755 111.519C177.987 111.959 178.052 112.469 177.939 112.953C177.809 113.425 177.485 113.683 177.122 113.987C177.069 114.044 177.035 114.114 177.022 114.19C177.009 114.266 177.019 114.344 177.05 114.414C177.081 114.485 177.132 114.544 177.197 114.586C177.262 114.627 177.338 114.649 177.414 114.648C178.143 114.568 178.621 113.899 178.819 113.239C179.002 112.511 178.901 111.74 178.535 111.084C178.21 110.407 177.69 109.842 177.042 109.462C176.41 109.121 175.579 109.085 175.001 109.546C174.922 109.598 174.866 109.678 174.844 109.77C174.822 109.861 174.836 109.958 174.883 110.04C174.934 110.12 175.015 110.178 175.107 110.2C175.2 110.222 175.298 110.207 175.38 110.158H175.371Z" fill="#010012"/>
<path d="M162.011 114.313C162.281 114.668 162.596 114.986 162.948 115.259C163.306 115.515 163.627 115.821 163.901 116.167C164.102 116.462 164.266 116.836 164.127 117.194C163.989 117.553 163.726 117.804 163.551 118.115C163.12 118.878 163.415 119.656 164.152 120.075C164.552 120.277 164.967 120.446 165.393 120.581L166.13 120.856C166.403 120.985 166.695 121.068 166.995 121.101C167.08 121.097 167.161 121.068 167.23 121.019C167.299 120.97 167.352 120.901 167.383 120.822C167.414 120.743 167.421 120.657 167.403 120.574C167.386 120.491 167.345 120.414 167.285 120.354C166.897 120.034 166.303 119.901 165.836 119.737C165.415 119.607 165.004 119.446 164.606 119.256C164.379 119.134 164.204 118.98 164.279 118.71C164.37 118.388 164.636 118.115 164.794 117.825C165.225 117.051 165.021 116.237 164.481 115.57C163.941 114.903 163.072 114.567 162.521 113.891C162.281 113.596 161.775 114.002 161.999 114.313H162.011Z" fill="#010012"/>
<path d="M166.038 113.879C166.038 113.945 166.038 113.811 166.049 113.798C166.06 113.784 166.063 113.729 166.067 113.693C166.083 113.614 166.101 113.532 166.124 113.453C166.147 113.373 166.165 113.317 166.187 113.249C166.203 113.205 166.21 113.18 166.187 113.249L166.208 113.201C166.224 113.162 166.242 113.124 166.26 113.087C166.326 112.949 166.402 112.816 166.487 112.688C166.514 112.65 166.514 112.65 166.487 112.688L166.521 112.647C166.546 112.613 166.573 112.582 166.6 112.55C166.628 112.518 166.705 112.434 166.761 112.38L166.852 112.296C166.868 112.282 166.95 112.214 166.877 112.271C166.943 112.219 167.011 112.171 167.081 112.123C167.152 112.076 167.202 112.048 167.265 112.014L167.392 111.949C167.474 111.908 167.326 111.971 167.419 111.949C167.562 111.891 167.709 111.845 167.859 111.81L167.93 111.799H167.902L168.025 111.785C168.135 111.78 168.245 111.77 168.354 111.754C168.443 111.727 168.522 111.672 168.576 111.596C168.631 111.521 168.66 111.43 168.657 111.336C168.655 111.243 168.622 111.153 168.564 111.081C168.505 111.008 168.424 110.957 168.333 110.935C168.106 110.903 167.875 110.916 167.653 110.973C167.478 111.008 167.308 111.061 167.145 111.132C166.775 111.294 166.439 111.525 166.156 111.813C165.872 112.081 165.651 112.408 165.51 112.772C165.368 113.136 165.309 113.526 165.337 113.915C165.339 114.009 165.379 114.097 165.446 114.161C165.514 114.226 165.604 114.26 165.697 114.258C165.791 114.256 165.879 114.216 165.943 114.149C166.008 114.081 166.042 113.991 166.04 113.897L166.038 113.879Z" fill="#010012"/>
<path d="M159.4 119.429C159.4 119.411 159.412 119.27 159.4 119.374C159.4 119.318 159.412 119.263 159.416 119.207C159.421 119.15 159.416 119.279 159.416 119.173C159.421 119.137 159.428 119.101 159.437 119.066C159.453 118.993 159.471 118.923 159.493 118.853C159.493 118.823 159.514 118.794 159.525 118.764C159.555 118.673 159.493 118.825 159.525 118.748C159.591 118.614 159.667 118.485 159.752 118.363C159.807 118.283 159.707 118.415 159.752 118.349L159.834 118.252C159.879 118.199 159.924 118.147 159.974 118.1L160.056 118.025C160.07 118.011 160.151 117.936 160.056 118.011C160.113 117.964 160.173 117.921 160.235 117.882C160.299 117.841 160.362 117.805 160.428 117.771C160.455 117.754 160.483 117.74 160.512 117.727H160.539C160.668 117.667 160.808 117.63 160.95 117.619C160.836 117.619 160.925 117.619 160.95 117.619H161.075C161.175 117.621 161.274 117.606 161.37 117.575C161.444 117.552 161.51 117.507 161.559 117.447C161.608 117.387 161.639 117.314 161.647 117.236C161.656 117.159 161.641 117.081 161.606 117.011C161.571 116.942 161.516 116.884 161.449 116.845C161.247 116.75 161.02 116.725 160.802 116.775C160.618 116.797 160.437 116.843 160.265 116.911C159.914 117.05 159.596 117.258 159.328 117.523C159.058 117.783 158.855 118.105 158.736 118.46C158.617 118.816 158.587 119.195 158.647 119.565C158.674 119.651 158.731 119.724 158.807 119.771C158.883 119.818 158.974 119.836 159.062 119.821C159.151 119.806 159.23 119.76 159.288 119.692C159.345 119.623 159.376 119.536 159.375 119.447L159.4 119.429Z" fill="#010012"/>
<path d="M167.212 125.863C169.335 125.165 171.133 123.718 172.268 121.793C172.525 121.362 171.871 121.026 171.588 121.423C170.44 123.082 168.848 124.383 166.994 125.177C166.583 125.357 166.751 126.005 167.2 125.858L167.212 125.863Z" fill="#010012"/>
<path d="M157.284 119.827C158.012 121.2 158.871 122.501 159.848 123.71C160.928 125.069 162.129 126.326 163.437 127.467C164.609 128.472 165.968 129.243 167.504 129.509C169.071 129.758 170.676 129.58 172.15 128.994C173.273 128.567 174.321 127.967 175.258 127.215C175.351 127.154 175.417 127.059 175.442 126.951C175.468 126.843 175.452 126.729 175.396 126.632C175.337 126.536 175.242 126.468 175.132 126.442C175.023 126.416 174.907 126.435 174.811 126.494C172.903 127.889 170.623 128.914 168.212 128.719C166.768 128.572 165.401 128 164.283 127.074C163.016 126.032 161.842 124.88 160.776 123.633C159.644 122.362 158.652 120.973 157.815 119.491C157.618 119.139 157.096 119.466 157.284 119.817V119.827Z" fill="#010012"/>
<path d="M173.188 129.395C173.66 130.858 174.118 132.326 174.549 133.803C174.98 135.279 175.323 136.79 175.81 138.24C175.844 138.328 175.91 138.4 175.995 138.441C176.08 138.482 176.177 138.49 176.267 138.463C176.358 138.436 176.434 138.375 176.482 138.294C176.53 138.213 176.545 138.116 176.525 138.024C176.232 136.523 175.733 135.044 175.282 133.583C174.83 132.122 174.343 130.652 173.825 129.202C173.683 128.803 173.056 128.975 173.188 129.395Z" fill="#010012"/>
<path d="M173.475 137.066C172.647 138.708 173.362 141.009 174.689 142.2C175.027 142.514 175.438 142.739 175.885 142.855C176.333 142.971 176.802 142.973 177.25 142.862C178.205 142.635 179.017 141.955 179.713 141.301C180.538 140.517 181.228 139.602 181.755 138.593C181.798 138.498 181.804 138.39 181.771 138.292C181.739 138.193 181.67 138.11 181.579 138.06C181.487 138.009 181.38 137.996 181.279 138.021C181.178 138.046 181.091 138.109 181.034 138.196C180.604 138.911 180.1 139.58 179.53 140.19C178.982 140.811 178.335 141.337 177.615 141.746C176.953 142.093 176.22 142.157 175.573 141.746C174.972 141.383 174.55 140.736 174.274 140.104C173.906 139.266 173.697 138.248 174.072 137.381C174.237 136.993 173.681 136.669 173.484 137.059L173.475 137.066Z" fill="#010012"/>
<path d="M150.907 106.435C150.076 111.252 149.923 116.162 150.453 121.021C150.857 124.696 151.642 128.324 152.559 131.899C153.582 135.898 154.782 139.85 156.043 143.779C157.156 147.245 158.329 150.692 159.562 154.119C159.983 155.296 160.41 156.471 160.852 157.642C161.004 158.041 161.145 158.443 161.306 158.835C161.335 158.908 161.367 158.978 161.399 159.062C161.413 159.094 161.424 159.125 161.438 159.155C161.544 159.395 161.438 159.125 161.483 159.262C161.528 159.398 161.569 159.464 161.612 159.566C161.626 159.595 161.637 159.627 161.651 159.659C161.664 159.69 161.728 159.831 161.669 159.699L161.683 159.731C161.855 160.185 162.59 159.972 162.413 159.504C162.374 159.4 162.454 159.688 162.388 159.429C162.388 159.393 162.363 159.357 162.352 159.321C162.32 159.221 162.286 159.121 162.254 159.021C162.15 158.699 162.043 158.375 161.93 158.055C161.55 156.996 161.172 155.943 160.796 154.895C159.632 151.617 158.493 148.33 157.393 145.027C156.107 141.127 154.897 137.203 153.802 133.244C152.811 129.758 152.028 126.216 151.458 122.636C150.732 117.752 150.675 112.791 151.288 107.891C151.343 107.454 151.402 107.018 151.467 106.582C151.524 106.205 150.952 106.056 150.887 106.437L150.907 106.435Z" fill="#010012"/>
<path d="M171.978 180.462C172.8 183.37 174.412 185.994 176.633 188.044C177.262 188.636 177.945 189.168 178.675 189.631C179.128 189.915 179.478 189.221 179.067 188.924C177.573 187.867 176.248 186.591 175.136 185.138C174.032 183.663 173.171 182.022 172.586 180.276C172.574 180.236 172.554 180.198 172.527 180.165C172.5 180.132 172.467 180.105 172.43 180.085C172.392 180.065 172.352 180.053 172.309 180.048C172.267 180.044 172.225 180.048 172.184 180.061C172.144 180.073 172.106 180.093 172.073 180.12C172.041 180.146 172.013 180.179 171.993 180.217C171.973 180.254 171.961 180.295 171.957 180.337C171.952 180.379 171.957 180.422 171.969 180.462H171.978Z" fill="#010012"/>
<path d="M169.751 192.928C169.971 198.612 170.505 204.28 171.35 209.905C172.174 215.547 173.229 221.155 174.37 226.74C175.014 229.889 175.622 233.062 176.411 236.177C176.444 236.281 176.516 236.368 176.612 236.419C176.708 236.47 176.82 236.482 176.924 236.451C177.027 236.418 177.114 236.346 177.165 236.25C177.217 236.155 177.23 236.043 177.201 235.939C176.713 233.13 176.067 230.349 175.481 227.559C174.896 224.769 174.347 222.01 173.816 219.227C172.761 213.653 171.847 208.05 171.219 202.41C170.869 199.252 170.584 196.083 170.425 192.909C170.422 192.819 170.384 192.734 170.319 192.671C170.253 192.609 170.166 192.576 170.075 192.578C169.985 192.581 169.9 192.619 169.838 192.684C169.775 192.75 169.742 192.837 169.744 192.928H169.751Z" fill="#010012"/>
<path d="M179.302 200.792C180.271 201.525 181.222 202.28 182.129 203.088C183.036 203.896 183.892 204.762 184.756 205.617C185.101 205.96 185.563 205.438 185.264 205.084C183.652 203.212 181.79 201.571 179.729 200.209C179.391 199.982 178.971 200.543 179.302 200.792Z" fill="#010012"/>
<path d="M183.182 207.81C182.638 212.383 182.352 216.993 182.084 221.591C181.817 226.19 181.608 230.81 181.467 235.429C181.388 238.027 181.313 240.624 181.349 243.224C181.349 243.714 182.084 243.678 182.107 243.206C182.318 238.612 182.384 234.014 182.561 229.42C182.738 224.826 182.994 220.239 183.289 215.652C183.454 213.062 183.643 210.473 183.763 207.878C183.779 207.547 183.214 207.479 183.173 207.815L183.182 207.81Z" fill="#010012"/>
<path d="M209.289 187.778C210.098 194.977 210.38 202.224 210.133 209.463C209.907 216.697 209.251 223.905 208.466 231.096C208.026 235.131 207.457 239.16 207.105 243.205C207.066 243.659 207.849 243.756 207.924 243.296C208.5 239.691 208.886 236.052 209.303 232.427C209.72 228.802 210.088 225.214 210.385 221.597C210.973 214.375 211.308 207.115 211.029 199.856C210.888 195.806 210.525 191.766 209.943 187.756C209.882 187.35 209.24 187.35 209.289 187.772V187.778Z" fill="#010012"/>
<path d="M210.065 123.464C209.287 125.737 209.013 128.152 209.26 130.542C209.487 132.674 210.059 134.902 211.302 136.667C211.941 137.574 212.756 138.377 213.797 138.795C214.235 138.969 214.598 138.377 214.162 138.135C212.513 137.216 211.467 135.653 210.83 133.913C209.654 130.586 209.591 126.966 210.651 123.6C210.769 123.224 210.183 123.087 210.059 123.453L210.065 123.464Z" fill="#010012"/>
<path d="M210.654 124.647C214.565 123.799 218.442 122.76 222.319 121.771L223.907 121.365C224.48 121.246 225.046 121.095 225.601 120.911C225.941 120.779 225.91 120.174 225.49 120.23C224.992 120.314 224.5 120.426 224.015 120.566L222.593 120.913L219.626 121.662C217.687 122.156 215.748 122.652 213.809 123.15C212.693 123.438 211.584 123.735 210.477 124.057C210.094 124.171 210.273 124.738 210.654 124.645V124.647Z" fill="#010012"/>
<path d="M211.091 135.399C217.443 134.29 223.718 132.718 229.92 131.009C230.777 130.774 231.634 130.534 232.49 130.29C233.377 130.036 234.289 129.814 235.147 129.478C235.24 129.45 235.318 129.386 235.364 129.301C235.41 129.215 235.42 129.115 235.392 129.022C235.364 128.929 235.3 128.851 235.214 128.805C235.129 128.759 235.029 128.749 234.936 128.777C234.137 128.941 233.348 129.201 232.576 129.424C231.805 129.646 231.007 129.877 230.222 130.084C228.687 130.507 227.147 130.918 225.603 131.316C222.481 132.119 219.349 132.875 216.205 133.584C214.435 133.988 212.666 134.38 210.898 134.787C210.492 134.882 210.687 135.467 211.082 135.397L211.091 135.399Z" fill="#010012"/>
<path d="M215.057 80.9715C215.587 85.8972 216.337 90.7912 217.305 95.6534C218.273 100.516 219.455 105.31 220.853 110.038C221.246 111.37 221.657 112.697 222.085 114.017C222.516 115.351 222.928 116.707 223.459 118.005C223.638 118.443 224.314 118.261 224.178 117.79C223.836 116.614 223.409 115.46 223.044 114.294C222.679 113.128 222.293 111.923 221.933 110.732C221.22 108.387 220.559 106.026 219.95 103.65C218.726 98.8845 217.701 94.0737 216.874 89.2176C216.406 86.4757 216.004 83.7225 215.667 80.9579C215.619 80.5813 215.027 80.5881 215.068 80.9715H215.057Z" fill="#010012"/>
<path d="M223.204 82.8998C224.565 88.7345 226.049 94.5328 227.637 100.306C229.225 106.08 230.922 111.817 232.705 117.531C233.202 119.119 233.705 120.707 234.213 122.295C234.733 123.912 235.232 125.541 235.822 127.134C236.005 127.626 236.763 127.408 236.611 126.907C236.185 125.455 235.688 124.021 235.223 122.581C234.769 121.174 234.32 119.766 233.875 118.357C232.968 115.501 232.091 112.639 231.246 109.77C229.539 104.036 227.908 98.2774 226.353 92.4957C225.477 89.2517 224.621 86.0001 223.783 82.741C223.685 82.3645 223.118 82.5391 223.204 82.9157V82.8998Z" fill="#010012"/>
<path d="M223.86 81.089C225.2 77.8355 226.888 74.7368 228.896 71.8471C229.177 71.4478 229.465 71.0508 229.76 70.6606C230.084 70.2777 230.383 69.8746 230.656 69.4538C230.861 69.0999 230.386 68.7982 230.107 69.05C229.801 69.3621 229.522 69.7006 229.275 70.0618C229.003 70.4217 228.735 70.7862 228.472 71.1552C227.953 71.8811 227.455 72.6214 226.979 73.3761C226.028 74.8848 225.168 76.45 224.407 78.0628C223.978 78.9702 223.588 79.9003 223.227 80.8395C223.089 81.2002 223.71 81.4452 223.86 81.089Z" fill="#010012"/>
<path d="M228.001 65.1778C227.212 66.5094 226.508 67.9 225.848 69.2951C225.163 70.6836 224.552 72.108 224.02 73.5622C223.872 73.991 224.587 74.2745 224.766 73.8549C225.068 73.1516 225.324 72.428 225.624 71.7225C225.923 71.0169 226.232 70.3182 226.556 69.6241C227.203 68.2335 227.917 66.8769 228.623 65.5203C228.659 65.4388 228.663 65.3467 228.635 65.2621C228.606 65.1776 228.547 65.1068 228.469 65.0638C228.391 65.0207 228.3 65.0085 228.213 65.0297C228.126 65.0508 228.051 65.1036 228.001 65.1778Z" fill="#010012"/>
<path d="M225.57 62.2542C224.84 63.9404 224.132 65.6365 223.447 67.3424C223.109 68.1818 222.782 69.0257 222.456 69.8696C222.295 70.2847 222.136 70.7021 221.977 71.1173C221.774 71.5558 221.61 72.0113 221.487 72.4784C221.471 72.5573 221.484 72.6391 221.523 72.7096C221.561 72.7801 221.624 72.8348 221.699 72.864C221.774 72.8932 221.856 72.8951 221.933 72.8694C222.009 72.8437 222.073 72.792 222.115 72.7234C222.321 72.3136 222.491 71.8871 222.624 71.4485C222.775 71.0311 222.934 70.6144 223.102 70.1985C223.429 69.3478 223.762 68.5017 224.094 67.6532C224.76 65.9518 225.441 64.2535 226.135 62.5581C226.287 62.1861 225.74 61.8776 225.577 62.2519L225.57 62.2542Z" fill="#010012"/>
<path d="M222.704 61.3127C222.137 62.6602 221.636 64.0341 221.202 65.4346C220.991 66.1151 220.808 66.8161 220.635 67.5148C220.434 68.238 220.287 68.975 220.195 69.7198C220.156 70.1327 220.792 70.1735 220.896 69.7969C221.091 69.1164 221.195 68.3904 221.35 67.6917C221.504 66.993 221.692 66.2989 221.883 65.6047C222.261 64.2209 222.708 62.8598 223.224 61.5214C223.339 61.2242 222.824 61.02 222.699 61.3172L222.704 61.3127Z" fill="#010012"/>
<path d="M218.034 69.5784C217.472 70.9799 217.203 72.4813 217.242 73.9907C217.245 74.0842 217.279 74.1743 217.337 74.2474C217.396 74.3205 217.476 74.3729 217.566 74.3968C218.438 74.6372 219.631 74.948 220.062 75.8418C220.336 76.4112 220.139 77.0577 219.928 77.6135C219.663 78.3077 219.288 78.995 219.139 79.7278C219.118 79.8165 219.13 79.9096 219.173 79.9902C219.215 80.0707 219.285 80.1332 219.37 80.1663C219.455 80.1993 219.549 80.2007 219.635 80.1702C219.72 80.1397 219.792 80.0792 219.837 80C220.057 79.6258 220.243 79.2325 220.393 78.8249C220.559 78.4324 220.729 78.0355 220.867 77.6317C221.119 76.8989 221.192 76.1163 220.835 75.4062C220.275 74.2901 218.905 73.8364 217.775 73.5642L218.102 73.9703C217.982 72.5638 218.17 71.1482 218.651 69.8211C218.778 69.4673 218.174 69.2268 218.034 69.5784Z" fill="#010012"/>
<path d="M232.977 72.6617C233.398 73.7105 233.645 74.8206 233.71 75.9488C233.748 77.076 233.637 78.2033 233.381 79.3016C233.36 79.3991 233.378 79.501 233.43 79.5855C233.483 79.6701 233.567 79.7308 233.664 79.7547C233.761 79.7787 233.863 79.7639 233.949 79.7136C234.035 79.6633 234.098 79.5815 234.125 79.4854C234.951 77.2169 234.592 74.5377 233.606 72.3804C233.444 72.0265 232.832 72.2964 232.977 72.6617Z" fill="#010012"/>
<path d="M235.019 70.6535C235.337 71.6925 235.537 72.7564 235.823 73.8022C235.927 74.1833 236.571 74.0994 236.528 73.6888C236.378 72.5799 236.096 71.493 235.686 70.4516C235.537 70.0342 234.888 70.2248 235.019 70.6535Z" fill="#010012"/>
<path d="M188 41.968C188.778 43.4107 189.651 44.8082 190.495 46.2124C190.906 46.8929 191.328 47.5735 191.72 48.254C192.104 48.8513 192.337 49.5322 192.401 50.239C192.394 51.0107 192.265 51.7764 192.018 52.5075C191.8 53.2833 191.578 54.0577 191.353 54.8305C190.899 56.3806 190.438 57.927 189.969 59.4696C188.107 65.5689 186.081 71.6183 183.889 77.6177C182.658 80.991 181.303 84.3189 180.078 87.6945C179.91 88.1482 180.686 88.4613 180.884 88.0098C182.19 85.0222 183.306 81.9415 184.434 78.8813C185.561 75.8211 186.623 72.8107 187.655 69.755C188.699 66.6638 189.699 63.5582 190.656 60.4382C191.13 58.8972 191.593 57.3523 192.045 55.8037C192.272 55.0293 192.498 54.2543 192.725 53.4784C192.968 52.7144 193.153 51.9334 193.279 51.1419C193.402 50.2667 193.272 49.3746 192.902 48.5716C192.515 47.7889 192.078 47.0312 191.596 46.3031C190.622 44.7151 189.679 43.0977 188.631 41.5574C188.575 41.4807 188.493 41.4279 188.4 41.4095C188.307 41.3911 188.211 41.4085 188.131 41.4582C188.05 41.5079 187.991 41.5863 187.966 41.6775C187.941 41.7687 187.952 41.866 187.995 41.9498L188 41.968Z" fill="#010012"/>
<path d="M202.938 41.8435C201.008 48.5281 199.057 55.2066 197.083 61.8791C195.109 68.5516 193.081 75.2059 190.999 81.842C190.42 83.6977 189.841 85.5541 189.263 87.4113C188.68 89.2646 188.063 91.1112 187.544 92.9827C187.396 93.5113 188.177 93.6792 188.356 93.1846C188.959 91.5332 189.472 89.8476 190.005 88.1735C190.538 86.4993 191.046 84.8932 191.561 83.2508C192.605 79.9267 193.631 76.601 194.64 73.2739C196.65 66.6195 198.605 59.944 200.506 53.2474C201.565 49.5058 202.601 45.7575 203.614 42.0023C203.73 41.5758 203.07 41.4148 202.947 41.8367L202.938 41.8435Z" fill="#010012"/>
<path d="M195.411 37.6592C194.648 38.1503 193.992 38.7917 193.485 39.5443C193.23 39.8817 193.114 40.3037 193.16 40.7239C193.244 41.1776 193.571 41.5247 193.884 41.8355C194.401 42.3459 195.295 42.9153 195.27 43.7433C195.257 44.1698 194.957 44.5487 194.714 44.8776C194.406 45.2534 194.119 45.6465 193.855 46.055C193.596 46.5087 194.186 46.8399 194.535 46.5518C194.893 46.2194 195.209 45.8446 195.477 45.4357C195.749 45.0942 195.965 44.7113 196.116 44.3014C196.398 43.4416 195.962 42.6068 195.368 41.9989C195.066 41.6903 194.721 41.4317 194.413 41.13C194.25 40.996 194.116 40.8309 194.018 40.6445C193.994 40.5529 193.991 40.4569 194.009 40.3638C194.027 40.2707 194.066 40.1829 194.122 40.1069C194.537 39.3424 195.243 38.7957 195.849 38.19C196.125 37.911 195.742 37.4255 195.411 37.6524V37.6592Z" fill="#010012"/>
<path d="M196.604 40.3434C197.641 39.6583 198.676 38.9687 199.707 38.2745C200.208 37.9388 200.708 37.6015 201.207 37.2628C201.751 36.9312 202.272 36.5621 202.765 36.158C203.115 35.8404 202.647 35.3663 202.275 35.5546C201.752 35.8557 201.25 36.193 200.773 36.5641C200.263 36.918 199.753 37.2764 199.244 37.6348C198.242 38.3396 197.241 39.0481 196.243 39.7604C195.887 40.0145 196.232 40.5884 196.604 40.3434Z" fill="#010012"/>
<path d="M197.337 42.9373C198.517 42.2296 199.688 41.5074 200.849 40.7709C201.423 40.4102 201.999 40.0518 202.571 39.6866C202.857 39.5028 203.143 39.3236 203.426 39.1353C203.737 38.9647 204.019 38.7483 204.265 38.4933C204.318 38.4354 204.35 38.3621 204.357 38.2844C204.364 38.2067 204.346 38.1288 204.305 38.0623C204.264 37.9958 204.203 37.9444 204.13 37.9158C204.058 37.8871 203.978 37.8828 203.902 37.9035C203.586 38.0101 203.287 38.163 203.015 38.3572C202.727 38.5341 202.442 38.7202 202.158 38.9016C201.57 39.2782 200.987 39.6616 200.404 40.0359C199.25 40.7868 198.102 41.5445 196.965 42.3226C196.886 42.3719 196.829 42.4508 196.808 42.5418C196.787 42.6329 196.803 42.7286 196.852 42.808C196.901 42.8875 196.98 42.944 197.071 42.9653C197.162 42.9866 197.258 42.9708 197.337 42.9215V42.9373Z" fill="#010012"/>
<path d="M188.968 39.5553C190.015 38.6813 191.129 37.8909 192.3 37.1915C193.35 36.5268 194.432 35.9143 195.49 35.2565C195.642 35.1612 195.796 35.0704 195.943 34.9684L196.07 34.8822C196.127 34.8391 196.236 34.7823 196.116 34.8481C196.517 34.6213 196.141 34.0201 195.741 34.2447C195.762 34.2447 195.853 34.1971 195.78 34.2266C195.707 34.256 195.571 34.3196 195.623 34.2946L195.515 34.3445L195.415 34.3922C195.34 34.4285 195.265 34.4693 195.188 34.5101C194.734 34.7506 194.28 35.0092 193.827 35.2769C192.593 36.021 191.37 36.7945 190.197 37.6339C189.577 38.0667 188.985 38.5387 188.425 39.0472C188.074 39.3738 188.609 39.8661 188.961 39.5553H188.968Z" fill="#010012"/>
<path d="M197.865 10.0771C197.094 17.012 196.67 23.9854 196.416 30.9475C196.346 32.8939 196.243 34.8516 196.257 36.8025C196.257 37.3946 197.151 37.3628 197.164 36.7798C197.239 35.0353 197.237 33.2886 197.287 31.5441C197.337 29.7996 197.403 28.0551 197.48 26.3106C197.631 22.861 197.818 19.4136 198.04 15.9684C198.167 14.0221 198.303 12.0779 198.435 10.1315C198.458 9.80488 197.89 9.73909 197.854 10.068L197.865 10.0771Z" fill="#010012"/>
<path d="M198.321 10.5514C201.654 11.1412 205.004 11.6153 208.355 12.0917C211.705 12.5681 215.063 13.0218 218.42 13.4528C220.324 13.7099 222.228 13.9541 224.13 14.1855L223.917 13.4505C222.93 14.7186 221.508 15.4922 220.083 16.1727C218.359 16.9917 216.621 17.7834 214.888 18.5819C211.336 20.2213 207.782 21.8577 204.226 23.491C203.217 23.9568 202.209 24.4196 201.2 24.8793C200.19 25.333 199.176 25.7867 198.21 26.3266C198.135 26.3745 198.08 26.4477 198.054 26.533C198.029 26.6182 198.035 26.7098 198.072 26.7908C198.109 26.8719 198.173 26.937 198.254 26.9742C198.335 27.0115 198.426 27.0183 198.512 26.9936C200.37 26.3448 202.141 25.4306 203.936 24.6184C205.73 23.8063 207.565 22.967 209.38 22.1231C212.957 20.4761 216.529 18.8125 220.097 17.1323C221.737 16.361 223.427 15.5149 224.561 14.0517C224.74 13.8248 224.713 13.3711 224.348 13.3167C217.624 12.4819 210.909 11.5866 204.203 10.6308C202.3 10.3608 200.397 10.1022 198.489 9.86626C198.056 9.81409 197.87 10.4629 198.321 10.5468V10.5514Z" fill="#010012"/>
<path d="M208.764 24.4999C210.454 24.0825 212.112 23.5788 213.777 23.0662L216.273 22.2994C217.089 22.0476 217.961 21.8457 218.739 21.4986C218.817 21.4505 218.874 21.3754 218.901 21.2876C218.927 21.1998 218.92 21.1054 218.882 21.0222C218.843 20.9394 218.776 20.8731 218.693 20.8352C218.61 20.7974 218.516 20.7905 218.428 20.8158C218.003 20.9077 217.584 21.0259 217.173 21.1697L215.926 21.5508L213.487 22.2994C211.84 22.803 210.202 23.3134 208.585 23.91C208.546 23.9218 208.51 23.9411 208.479 23.9667C208.448 23.9923 208.422 24.0238 208.403 24.0594C208.384 24.095 208.373 24.134 208.369 24.1742C208.365 24.2143 208.369 24.2548 208.381 24.2934C208.392 24.332 208.412 24.3679 208.437 24.399C208.463 24.4302 208.494 24.4559 208.53 24.4749C208.566 24.4939 208.605 24.5056 208.645 24.5095C208.685 24.5134 208.725 24.5094 208.764 24.4976V24.4999Z" fill="#010012"/>
</g>
<defs>
<clipPath id="clip0_4581_65196">
<rect width="245" height="245" fill="white"/>
</clipPath>
</defs>
</svg>
