<?xml version="1.0" standalone="no"?>
<!DOCTYPE svg PUBLIC "-//W3C//DTD SVG 20010904//EN"
 "http://www.w3.org/TR/2001/REC-SVG-20010904/DTD/svg10.dtd">
<svg version="1.0" xmlns="http://www.w3.org/2000/svg"
 width="626.000000pt" height="626.000000pt" viewBox="0 0 626.000000 626.000000"
 preserveAspectRatio="xMidYMid meet">

<g transform="translate(0.000000,626.000000) scale(0.100000,-0.100000)"
fill="#000000" stroke="none">
<path d="M1720 5145 c-119 -22 -154 -34 -335 -107 -276 -113 -371 -162 -441
-232 -63 -64 -222 -294 -263 -384 l-24 -52 66 -60 c36 -34 87 -94 112 -134
l47 -73 106 -6 c174 -10 389 -62 422 -101 7 -10 65 -12 240 -8 l230 5 2 -152
c1 -83 2 -163 2 -178 1 -27 -2 -29 -109 -56 -140 -36 -172 -64 -189 -162 -9
-48 -51 -248 -77 -364 -16 -68 -26 -91 -59 -128 -64 -73 -85 -126 -85 -213 0
-61 5 -83 25 -120 33 -59 84 -93 128 -86 l34 5 -6 -107 c-4 -59 -9 -122 -12
-139 l-5 -33 -81 0 c-45 0 -78 -3 -75 -6 3 -4 -2 -18 -13 -32 -26 -32 -34 -66
-61 -254 -19 -135 -25 -158 -40 -158 -10 0 -19 9 -22 23 -4 21 -4 21 -6 1 -1
-18 -9 -23 -48 -29 -59 -8 -117 -44 -140 -87 -25 -48 -32 -227 -9 -243 13 -10
16 -46 19 -256 l2 -244 3 248 2 247 55 0 55 0 0 -487 c0 -469 1 -489 20 -520
l20 -33 -49 0 c-33 0 -56 6 -72 19 -24 19 -24 23 -29 238 l-6 218 -2 -211 c-2
-200 -1 -213 19 -238 l20 -26 -298 -2 c-210 -2 -133 -4 262 -8 l560 -5 6 -39
c8 -48 42 -81 101 -96 76 -21 184 17 266 94 l49 46 197 0 197 0 25 -29 c33
-39 113 -90 171 -107 104 -32 202 13 218 99 l7 37 1502 2 c825 1 1425 5 1332
8 -166 5 -168 5 -147 24 12 11 21 23 21 27 0 4 -13 -6 -29 -22 -25 -25 -37
-29 -81 -29 l-51 0 20 26 c21 26 21 36 21 520 l0 494 60 0 60 0 0 -487 c0
-267 2 -484 4 -482 2 2 6 267 7 589 3 547 2 587 -15 623 -21 43 -61 74 -106
84 -17 3 -34 12 -37 20 -4 11 -7 11 -17 -2 -23 -31 -36 4 -61 170 -32 214 -30
207 -61 238 -30 31 -26 34 16 12 16 -8 36 -28 44 -43 9 -15 15 -22 16 -17 0
19 -31 55 -60 70 -20 10 -60 15 -128 15 l-98 0 -17 271 c-19 294 -22 308 -79
328 -20 7 -191 11 -499 11 l-469 0 0 59 c0 40 5 63 15 71 8 7 15 20 15 29 0
38 -17 41 -252 41 l-228 0 -12 -26 c-11 -24 -10 -29 15 -48 23 -19 27 -29 27
-74 l0 -52 -292 0 c-161 0 -304 -3 -318 -6 -16 -5 -22 -3 -15 3 6 5 35 15 65
22 74 15 115 42 140 90 40 80 33 105 -100 332 -67 112 -130 212 -142 222 -11
9 -59 29 -107 43 -47 14 -120 41 -161 59 -41 18 -88 37 -105 42 -28 9 -30 13
-38 79 -4 37 -11 72 -15 76 -10 10 8 118 18 118 4 0 19 17 33 38 l25 38 71 -7
c39 -4 90 -11 114 -14 38 -6 47 -2 96 35 128 97 284 170 413 195 38 7 71 15
74 17 8 9 -46 180 -80 254 -93 199 -231 343 -451 469 -142 81 -218 105 -485
156 -149 28 -485 36 -600 14z m495 -10 c198 -28 357 -65 454 -105 234 -98 433
-267 544 -461 26 -46 87 -192 87 -208 0 -5 -30 22 -67 61 -60 61 -69 76 -79
127 -13 61 -80 218 -90 209 -3 -3 8 -33 24 -65 32 -62 67 -171 59 -179 -3 -3
-20 9 -38 27 -98 92 -303 199 -497 259 -98 30 -102 33 -102 60 0 32 -39 144
-47 136 -3 -2 4 -30 16 -61 27 -71 28 -110 4 -100 -10 4 -67 17 -128 30 -362
77 -699 55 -1085 -70 -232 -76 -344 -140 -489 -279 -46 -45 -81 -74 -76 -66
38 70 204 307 242 347 55 56 164 115 378 205 213 90 327 126 450 141 79 10
350 5 440 -8z m24 -261 c115 -17 348 -76 456 -116 115 -42 270 -121 339 -173
140 -104 309 -295 284 -320 -3 -3 -42 -15 -87 -25 -44 -11 -111 -33 -148 -50
-37 -17 -73 -28 -81 -25 -7 2 -11 1 -8 -4 4 -5 -15 -21 -41 -37 -27 -15 -74
-47 -106 -71 l-58 -43 -62 9 c-34 6 -83 13 -109 16 -45 6 -46 7 -39 33 10 34
-2 67 -28 81 -18 10 -18 13 -5 57 18 60 18 165 0 207 -18 43 -99 117 -161 147
-40 20 -66 25 -125 25 -90 0 -145 -24 -212 -92 l-43 -44 0 -146 c0 -139 -1
-148 -22 -170 -29 -28 -29 -48 2 -109 14 -27 25 -49 25 -50 0 0 -21 5 -47 11
l-48 12 -6 154 c-4 85 -10 289 -14 453 l-7 299 129 -7 c70 -4 170 -14 222 -22z
m-386 -166 c4 -101 10 -300 13 -443 l7 -260 -124 0 c-68 0 -167 -2 -218 -5
-95 -5 -95 -5 -102 20 -4 16 -7 19 -8 8 -1 -22 -3 -22 -50 2 -48 24 -172 56
-271 70 -41 6 -78 16 -82 23 -6 9 -8 9 -8 0 0 -9 -18 -13 -59 -13 l-58 0 -54
81 c-29 44 -77 103 -108 130 -52 46 -54 50 -41 73 19 37 126 144 198 199 94
73 211 130 377 186 193 64 392 106 526 109 l56 2 6 -182z m432 -456 l19 33 16
-55 16 -54 16 23 c13 19 20 22 31 13 10 -9 17 -4 32 20 l18 32 13 -30 c55
-132 54 -122 28 -264 -23 -132 -14 -123 -99 -93 -56 20 -75 32 -78 47 -3 15
-5 12 -6 -9 l-2 -30 -31 35 c-17 20 -25 25 -19 13 6 -12 11 -24 11 -27 0 -2
-25 -12 -55 -20 -30 -9 -61 -19 -68 -22 -19 -7 -53 75 -68 164 l-12 71 47 75
c26 42 50 76 52 76 3 0 2 -16 -2 -35 -4 -21 -2 -35 4 -35 17 0 60 40 84 78
l23 37 5 -38 5 -39 20 34z m-262 -134 c3 -13 9 -52 13 -87 8 -73 -3 -76 -36
-11 -20 38 -27 100 -13 113 13 14 31 6 36 -15z m541 6 c11 -29 6 -64 -14 -104
-35 -68 -43 -61 -35 26 4 43 9 82 12 87 8 13 31 8 37 -9z m-548 -165 c24 -12
30 -22 32 -53 2 -27 -1 -42 -11 -48 -11 -5 -17 -33 -22 -86 -9 -105 -11 -110
-53 -121 -20 -6 -37 -9 -38 -8 -2 1 -6 78 -10 171 l-7 169 40 -5 c22 -3 54
-12 69 -19z m69 -161 c48 -97 116 -148 195 -148 78 0 147 49 184 130 l20 45 7
-30 c4 -16 7 -66 8 -111 1 -93 -7 -106 -94 -146 -40 -18 -67 -23 -135 -23 -92
1 -150 20 -218 72 l-35 26 7 96 c7 104 14 141 27 141 4 0 20 -24 34 -52z m220
12 c4 -6 -8 -10 -29 -10 -20 0 -36 5 -36 10 0 6 13 10 29 10 17 0 33 -4 36
-10z m355 -190 c47 -21 108 -43 135 -49 107 -26 123 -39 204 -178 41 -71 84
-143 95 -162 l19 -34 -24 14 c-16 8 -75 14 -179 16 -85 2 -170 6 -187 9 -30 4
-33 8 -33 42 0 20 -5 44 -11 52 -7 11 -8 0 -4 -38 l7 -54 -83 7 c-46 4 -88 11
-92 15 -4 3 21 85 57 181 35 96 63 176 60 178 -2 2 -5 2 -7 0 -4 -6 -97 -256
-115 -312 l-16 -48 -53 7 c-37 4 -53 3 -53 -5 0 -9 -6 -9 -22 0 -16 8 -23 9
-26 1 -2 -6 -10 -8 -18 -5 -13 5 -13 8 -2 15 9 7 4 8 -14 4 l-27 -6 13 38 c8
21 21 72 31 114 l17 76 61 22 c77 28 127 75 127 119 0 29 2 31 28 25 15 -3 65
-23 112 -44z m-650 6 c0 -13 7 -29 15 -36 19 -16 20 -50 1 -50 -7 0 -27 14
-44 30 -18 17 -39 30 -47 30 -28 0 -15 29 18 39 50 14 57 13 57 -13z m-122
-23 c-2 -9 -16 -21 -33 -26 -55 -18 -57 -22 -49 -122 6 -88 -5 -165 -25 -165
-4 0 -53 -52 -109 -115 -57 -63 -117 -124 -134 -136 l-31 -23 6 25 c4 13 25
114 47 224 23 110 45 214 51 231 16 51 47 70 154 98 120 30 127 31 123 9z m74
-30 c10 -9 18 -29 18 -45 0 -25 -3 -28 -33 -28 -18 0 -39 6 -46 13 -10 10 -11
9 -6 -5 6 -14 2 -18 -18 -18 -14 0 -28 -4 -31 -9 -4 -5 10 -5 32 0 58 14 99
11 106 -7 11 -29 6 -54 -11 -54 -16 0 -15 -1 1 -13 26 -19 10 -47 -28 -48
l-31 -1 29 -7 c17 -3 29 -9 28 -13 -1 -5 -2 -27 -2 -50 0 -38 -1 -40 -14 -23
-24 33 -46 12 -46 -43 0 -33 -5 -54 -16 -63 -30 -25 -51 -82 -46 -128 3 -32 1
-42 -8 -36 -7 4 -10 20 -8 36 3 16 2 30 -2 31 -4 2 -14 49 -23 105 -16 95 -16
105 -1 144 13 32 16 60 11 134 -5 74 -3 96 8 105 11 9 73 30 114 39 3 1 13 -6
23 -16z m199 -171 c4 -110 4 -112 -18 -112 -12 0 -27 8 -32 18 -6 9 -11 11
-11 5 0 -8 -14 -13 -34 -13 l-35 0 6 58 c3 31 10 62 15 68 5 7 6 41 2 77 l-7
65 56 -26 55 -27 3 -113z m-117 85 c8 -43 -1 -69 -23 -65 -18 4 -38 77 -27
103 10 26 43 1 50 -38z m204 -105 c3 -111 2 -112 -20 -112 -43 0 -47 11 -48
120 -1 58 -1 108 -1 111 1 4 16 3 34 0 l32 -7 3 -112z m68 101 c-2 -10 -13
-54 -23 -98 -18 -79 -18 -79 -25 -40 -9 52 -10 140 -1 148 3 4 17 7 30 7 18 0
23 -4 19 -17z m-286 -89 c0 -9 -5 -14 -12 -12 -18 6 -21 28 -4 28 9 0 16 -7
16 -16z m153 -126 c119 -25 113 -19 101 -112 -4 -29 -12 -46 -21 -46 -7 0 -37
-13 -66 -30 -47 -26 -113 -43 -94 -23 4 3 -2 17 -14 29 l-22 23 35 -6 c44 -7
60 13 32 36 -11 9 -23 24 -27 34 -3 9 -16 17 -27 17 -12 0 -18 5 -15 10 3 6
-1 10 -10 10 -23 0 -8 -19 23 -31 21 -8 23 -12 12 -19 -20 -13 -44 -12 -75 2
-30 14 -31 23 -5 82 23 55 23 55 173 24z m-373 -178 c33 -197 39 -167 -58
-325 -82 -134 -118 -174 -180 -203 -48 -22 -59 -23 -93 -13 -46 14 -74 48 -94
114 -41 139 -13 194 215 426 96 98 176 177 178 175 2 -1 16 -79 32 -174z m732
149 c46 -5 181 -14 300 -19 235 -10 259 -15 297 -69 66 -92 20 -214 -93 -245
-28 -8 -78 -18 -111 -21 -33 -4 -69 -9 -80 -11 -16 -4 -17 -3 -5 5 12 9 10 11
-11 11 -15 0 -118 22 -230 49 -112 27 -213 51 -224 53 -22 4 -22 -4 -4 161
l12 109 33 -7 c19 -3 71 -10 116 -16z m-168 2 c12 -18 -6 -131 -20 -131 -15 0
-17 23 -8 94 6 44 16 57 28 37z m-295 -99 c40 1 72 -14 58 -28 -8 -9 -166 26
-173 38 -13 21 9 25 40 8 20 -13 48 -19 75 -18z m-141 -12 c9 -16 19 -30 22
-30 3 0 11 -4 19 -9 11 -7 10 -13 -8 -32 -26 -29 -23 -54 7 -53 27 1 26 17 7
-271 -8 -121 -15 -237 -15 -257 0 -42 2 -43 140 -53 l85 -6 -3 106 c-4 123 7
155 58 155 30 0 30 0 32 63 1 74 2 55 -7 217 l-7 130 30 -6 c17 -4 32 -1 36 5
4 6 12 11 18 11 7 0 9 -18 4 -54 -3 -32 -2 -57 4 -61 5 -3 -8 -38 -31 -82 -22
-41 -38 -77 -35 -80 3 -3 23 31 45 76 23 45 45 81 49 81 4 0 95 -22 202 -48
l195 -47 12 -163 c6 -89 19 -197 27 -240 8 -42 17 -95 21 -117 4 -27 19 -53
45 -80 59 -61 93 -144 98 -241 3 -51 0 -96 -8 -120 -14 -42 -58 -114 -70 -114
-3 0 0 28 7 63 26 118 -5 281 -66 349 -21 23 -38 31 -89 38 -118 16 -234 -13
-332 -85 -128 -94 -202 -89 -401 30 -171 102 -214 112 -319 75 -30 -10 -56
-18 -57 -16 -1 1 16 30 37 64 l40 63 0 158 0 158 59 99 c59 98 60 101 67 194
5 67 12 105 26 128 24 40 34 40 56 2z m68 -5 c56 -16 107 -60 82 -70 -17 -7
-129 54 -136 73 -5 15 -6 15 54 -3z m254 -102 c0 -43 3 -135 7 -205 l6 -128
-41 0 -42 0 0 154 c0 84 -3 167 -6 183 -5 26 -2 33 28 51 18 11 36 21 41 21 4
1 7 -34 7 -76z m-211 28 l24 -19 -49 -10 c-58 -13 -76 -2 -49 28 22 25 43 25
74 1z m1966 -21 l0 -25 -226 -3 c-192 -2 -228 0 -239 13 -10 12 -10 18 0 30
11 13 47 15 239 13 l226 -3 0 -25z m-1842 -177 c4 -108 7 -247 7 -310 l0 -114
-32 5 c-18 3 -64 8 -102 12 l-69 6 6 61 c3 34 11 157 18 272 7 116 15 214 19
218 5 6 109 40 141 46 3 0 9 -87 12 -196z m1797 77 l0 -60 -180 0 -180 0 0 60
0 60 180 0 180 0 0 -60z m-1140 -54 c0 -11 -19 -15 -25 -6 -3 5 1 10 9 10 9 0
16 -2 16 -4z m1161 -423 c1 -17 2 -17 6 0 4 15 19 17 133 17 139 0 170 -7 213
-48 66 -62 62 -6 59 -877 -3 -628 -7 -795 -17 -815 -18 -34 -64 -77 -98 -89
-19 -7 -188 -11 -489 -11 -450 0 -463 1 -506 21 -26 13 -54 38 -70 62 l-27 41
0 796 0 796 27 41 c15 23 44 49 70 62 41 20 56 21 371 21 304 0 327 -1 328
-17z m1227 -280 c17 -15 25 -46 42 -163 11 -80 23 -157 26 -172 l6 -28 -99 0
-99 0 -12 181 c-7 100 -9 185 -6 190 10 17 120 10 142 -8z m-3694 -55 c-5 -42
-14 -73 -29 -93 -63 -85 -68 -135 -18 -187 l27 -28 -77 0 c-42 0 -77 4 -77 9
0 39 53 337 61 348 7 8 32 13 65 13 l54 0 -6 -62z m51 -272 l6 -39 -31 7 c-41
8 -76 35 -91 68 -15 37 -1 76 54 146 l42 55 7 -99 c4 -54 9 -116 13 -138z
m-107 -858 l-3 -483 -105 0 -105 0 -3 483 -2 482 110 0 110 0 -2 -482z m120 0
l-3 -483 -52 -3 -53 -3 0 485 0 486 55 0 55 0 -2 -482z m834 230 c-4 -203 -8
-258 -20 -276 -12 -18 -16 -66 -18 -235 -2 -192 0 -215 17 -245 l18 -32 -190
0 -190 0 20 26 c20 25 21 38 20 246 -2 192 -4 222 -19 241 -16 20 -18 51 -19
275 l-2 252 194 0 194 0 -5 -252z m760 -136 l3 -388 28 -43 c17 -25 45 -50 72
-63 l43 -21 4 -69 3 -68 -242 0 c-212 0 -243 2 -243 15 0 27 -36 88 -94 158
-41 50 -55 75 -51 90 27 119 27 120 5 149 l-21 28 35 163 c19 89 47 218 61
287 14 69 28 131 30 138 3 9 49 12 184 12 l180 0 3 -388z m1758 -98 c0 -497 1
-512 39 -541 13 -10 -59 -12 -346 -13 l-363 0 0 68 0 67 49 27 c38 21 54 38
75 79 l26 53 0 373 0 373 260 0 260 0 0 -486z m200 1 l0 -485 -54 0 c-40 0
-55 4 -60 16 -3 9 -6 227 -6 485 l0 469 60 0 60 0 0 -485z m218 3 l-3 -483
-100 0 -100 0 -3 483 -2 482 105 0 105 0 -2 -482z m-3628 90 c42 -201 43 -209
25 -228 -18 -20 -18 -52 1 -155 4 -25 -2 -38 -40 -80 l-45 -50 -1 370 c0 203
4 365 8 360 5 -6 28 -103 52 -217z m314 -448 c26 0 26 -1 26 -68 0 -60 -4 -74
-28 -108 -43 -59 -108 -113 -169 -141 -45 -21 -66 -25 -120 -21 -59 4 -69 7
-94 36 -25 28 -29 41 -29 90 0 64 14 92 89 182 25 30 46 56 47 58 1 2 35 9 76
16 73 13 73 13 124 -15 28 -16 63 -29 78 -29z m589 44 c53 -7 79 -30 157 -134
42 -56 56 -102 45 -142 -24 -87 -54 -109 -142 -109 -80 0 -166 44 -237 123
-59 64 -70 93 -64 168 3 42 5 45 41 52 21 4 55 19 75 33 21 15 46 24 57 21 11
-2 42 -8 68 -12z m1557 -179 l0 -65 -387 0 -388 0 3 65 4 65 384 0 384 0 0
-65z"/>
<path d="M2410 5071 c0 -5 5 -13 10 -16 6 -3 10 -2 10 4 0 5 -4 13 -10 16 -5
3 -10 2 -10 -4z"/>
<path d="M1372 4983 c-10 -16 -29 -46 -41 -68 l-23 -40 24 27 c25 30 72 108
64 108 -3 0 -13 -12 -24 -27z"/>
<path d="M1280 4830 c-6 -11 -8 -20 -6 -20 3 0 10 9 16 20 6 11 8 20 6 20 -3
0 -10 -9 -16 -20z"/>
<path d="M2415 4607 c141 -120 257 -296 329 -501 3 -10 9 -16 12 -13 3 3 -3
31 -15 61 -44 119 -128 263 -209 360 -43 52 -140 136 -157 136 -5 0 12 -19 40
-43z"/>
<path d="M2925 4568 c33 -18 77 -44 98 -56 20 -13 37 -20 37 -15 0 12 -141 93
-172 100 -13 2 4 -10 37 -29z"/>
<path d="M3091 4473 c0 -4 34 -35 76 -68 42 -33 87 -75 102 -92 14 -18 29 -33
34 -33 18 0 -31 55 -106 118 -89 74 -107 88 -106 75z"/>
<path d="M2766 4035 c4 -8 8 -15 10 -15 2 0 4 7 4 15 0 8 -4 15 -10 15 -5 0
-7 -7 -4 -15z"/>
<path d="M1489 4661 c-13 -11 -19 -20 -14 -20 14 0 50 28 43 34 -3 3 -16 -3
-29 -14z"/>
<path d="M1325 4544 c-55 -42 -139 -112 -187 -156 -53 -48 -92 -77 -99 -72 -7
4 -9 3 -5 -4 3 -6 -8 -27 -25 -46 -17 -20 -27 -36 -21 -36 5 0 15 7 22 15 7 8
16 12 21 9 5 -3 9 2 9 10 0 19 161 168 286 262 84 65 117 94 102 94 -1 0 -48
-34 -103 -76z"/>
<path d="M1604 4325 c-59 -118 -105 -217 -102 -221 4 -3 40 64 81 149 41 85
91 182 111 216 39 67 40 71 27 71 -5 0 -58 -97 -117 -215z"/>
<path d="M1052 4440 c0 -14 2 -19 5 -12 2 6 2 18 0 25 -3 6 -5 1 -5 -13z"/>
<path d="M1043 4375 c0 -22 2 -30 4 -17 2 12 2 30 0 40 -3 9 -5 -1 -4 -23z"/>
<path d="M1023 4180 c0 -25 2 -35 4 -22 2 12 2 32 0 45 -2 12 -4 2 -4 -23z"/>
<path d="M923 4170 c-33 -40 -28 -49 7 -15 29 28 38 46 23 44 -5 0 -18 -13
-30 -29z"/>
<path d="M1433 4100 c0 -25 2 -35 4 -22 2 12 2 32 0 45 -2 12 -4 2 -4 -23z"/>
<path d="M1471 4052 c-7 -13 -11 -28 -8 -35 2 -7 9 -2 16 11 7 13 11 28 8 35
-2 7 -9 2 -16 -11z"/>
<path d="M2147 4093 c18 -2 50 -2 70 0 21 2 7 4 -32 4 -38 0 -55 -2 -38 -4z"/>
<path d="M2346 4092 c-3 -5 8 -6 25 -4 16 2 29 6 29 8 0 8 -49 4 -54 -4z"/>
<path d="M2423 4083 c9 -2 23 -2 30 0 6 3 -1 5 -18 5 -16 0 -22 -2 -12 -5z"/>
<path d="M2303 4015 c0 -38 2 -53 4 -32 2 20 2 52 0 70 -2 17 -4 1 -4 -38z"/>
<path d="M2140 4040 c0 -6 7 -10 15 -10 8 0 15 2 15 4 0 2 -7 6 -15 10 -8 3
-15 1 -15 -4z"/>
<path d="M2195 4030 c-13 -6 -15 -9 -5 -9 8 0 22 4 30 9 18 12 2 12 -25 0z"/>
<path d="M2358 4028 c6 -6 18 -8 28 -6 14 3 12 5 -9 10 -19 3 -25 2 -19 -4z"/>
<path d="M2418 4023 c7 -3 16 -2 19 1 4 3 -2 6 -13 5 -11 0 -14 -3 -6 -6z"/>
<path d="M1918 3423 c7 -3 16 -2 19 1 4 3 -2 6 -13 5 -11 0 -14 -3 -6 -6z"/>
<path d="M1863 3413 c9 -2 23 -2 30 0 6 3 -1 5 -18 5 -16 0 -22 -2 -12 -5z"/>
<path d="M1868 3343 c6 -2 18 -2 25 0 6 3 1 5 -13 5 -14 0 -19 -2 -12 -5z"/>
<path d="M2122 3450 c0 -14 2 -19 5 -12 2 6 2 18 0 25 -3 6 -5 1 -5 -13z"/>
<path d="M2113 3380 c0 -25 2 -35 4 -22 2 12 2 32 0 45 -2 12 -4 2 -4 -23z"/>
<path d="M2148 3161 c33 -31 72 -40 101 -22 10 6 1 8 -25 4 -33 -4 -46 0 -74
22 l-35 27 33 -31z"/>
<path d="M1830 2434 c-41 -14 -90 -38 -90 -44 0 -5 16 0 36 11 99 50 154 35
294 -80 47 -39 91 -70 98 -71 8 0 -8 16 -35 37 -26 20 -66 51 -87 70 -76 64
-161 94 -216 77z"/>
<path d="M1917 2301 c51 -27 119 -70 150 -95 32 -25 75 -52 95 -60 47 -20 118
-21 144 -2 17 13 14 13 -27 4 -71 -16 -109 -4 -206 68 -77 58 -214 134 -239
134 -5 0 33 -22 83 -49z"/>
<path d="M2670 2340 c-41 -8 -251 -109 -275 -132 -18 -17 27 3 135 61 l105 56
97 0 c54 0 98 3 98 8 0 4 -10 7 -22 7 -13 0 -39 2 -58 4 -19 3 -55 1 -80 -4z"/>
<path d="M3983 2385 c0 -27 2 -38 4 -22 2 15 2 37 0 50 -2 12 -4 0 -4 -28z"/>
<path d="M3966 2264 c-4 -37 -5 -69 -2 -71 2 -3 7 25 11 62 4 36 5 68 3 71 -3
2 -8 -25 -12 -62z"/>
<path d="M3511 2036 c-8 -9 -10 -170 -9 -581 3 -517 4 -569 20 -578 12 -8 21
-7 32 2 14 12 16 75 16 580 0 576 -1 591 -36 591 -6 0 -17 -6 -23 -14z m39
-577 c0 -538 -1 -570 -17 -567 -17 3 -18 39 -21 558 -1 305 0 561 3 568 2 6
11 12 20 12 13 0 15 -65 15 -571z"/>
<path d="M3692 2042 c-10 -7 -12 -131 -10 -588 3 -563 4 -579 22 -582 45 -9
46 -1 46 589 0 494 -2 559 -16 573 -17 18 -24 19 -42 8z m38 -582 c0 -563 0
-570 -20 -570 -20 0 -20 7 -20 570 0 563 0 570 20 570 20 0 20 -7 20 -570z"/>
<path d="M3861 2036 c-8 -9 -10 -170 -9 -581 3 -517 4 -569 20 -578 12 -8 21
-7 32 2 14 12 16 75 16 580 0 576 -1 591 -36 591 -6 0 -17 -6 -23 -14z m44
-576 c0 -530 -1 -565 -17 -568 -17 -3 -18 29 -18 568 0 539 1 571 18 568 16
-3 17 -38 17 -568z"/>
<path d="M4041 2036 c-8 -9 -10 -170 -9 -581 3 -517 4 -569 20 -578 12 -8 21
-7 32 2 14 12 16 75 16 580 0 576 -1 591 -36 591 -6 0 -17 -6 -23 -14z m39
-577 c0 -538 -1 -570 -17 -567 -17 3 -18 39 -21 558 -1 305 0 561 3 568 2 6
11 12 20 12 13 0 15 -65 15 -571z"/>
<path d="M1312 2216 c-22 -25 -31 -48 -37 -91 -3 -31 -5 -59 -2 -61 3 -3 8 23
12 58 6 52 13 68 40 95 18 18 29 33 25 33 -4 0 -21 -15 -38 -34z"/>
<path d="M5352 2135 c0 -16 2 -22 5 -12 2 9 2 23 0 30 -3 6 -5 -1 -5 -18z"/>
<path d="M5362 2070 c0 -19 2 -27 5 -17 2 9 2 25 0 35 -3 9 -5 1 -5 -18z"/>
<path d="M1262 2020 c0 -19 2 -27 5 -17 2 9 2 25 0 35 -3 9 -5 1 -5 -18z"/>
<path d="M5372 2000 c0 -19 2 -27 5 -17 2 9 2 25 0 35 -3 9 -5 1 -5 -18z"/>
<path d="M1245 1925 c-3 -31 -5 -59 -2 -61 3 -3 8 20 12 51 3 31 5 59 2 61 -3
3 -8 -20 -12 -51z"/>
<path d="M5382 1940 c-1 -14 3 -43 7 -65 6 -26 9 -31 9 -15 1 14 -3 43 -7 65
-6 26 -9 31 -9 15z"/>
</g>
</svg>
